<?xml version="1.0" encoding="UTF-8"?> <svg xmlns="http://www.w3.org/2000/svg" width="399" height="376" viewBox="0 0 399 376" fill="none"> <path d="M289.709 213.386V317.077L307.053 345.343L308.373 347.493H376.81L378.192 213.386H289.709Z" fill="#E6E6E6"></path> <path opacity="0.1" d="M289.709 213.386V317.077L307.053 345.343L308.118 213.386H289.709Z" fill="black"></path> <path d="M124.494 210.62V314.312L107.15 342.578L105.83 344.728H37.3935L36.0107 210.62H124.494Z" fill="#E6E6E6"></path> <path opacity="0.1" d="M124.494 210.62V314.312L107.149 342.578L106.085 210.62H124.494Z" fill="black"></path> <path d="M398.93 208.547V214.768H27.0234V205.781L61.5871 187.808H368.514L398.93 208.547Z" fill="#E6E6E6"></path> <path opacity="0.1" d="M398.93 208.547V214.768H27.0234V205.781L398.93 208.547Z" fill="black"></path> <path d="M80.2528 239.654H63.6618L56.749 234.815H87.8566L80.2528 239.654Z" fill="#3F3D56"></path> <path d="M80.2528 259.701H63.6618L56.749 254.863H87.8566L80.2528 259.701Z" fill="#3F3D56"></path> <path d="M80.2528 288.044H63.6618L56.749 283.205H87.8566L80.2528 288.044Z" fill="#3F3D56"></path> <path d="M80.2528 316.386H63.6618L56.749 311.547H87.8566L80.2528 316.386Z" fill="#3F3D56"></path> <path d="M333.951 242.419H350.542L357.454 237.58H326.347L333.951 242.419Z" fill="#3F3D56"></path> <path d="M333.951 262.466H350.542L357.454 257.627H326.347L333.951 262.466Z" fill="#3F3D56"></path> <path d="M333.951 290.809H350.542L357.454 285.97H326.347L333.951 290.809Z" fill="#3F3D56"></path> <path d="M333.951 319.151H350.542L357.454 314.312H326.347L333.951 319.151Z" fill="#3F3D56"></path> <path d="M345.248 67.8994H205.578C204.884 67.8993 204.197 68.0359 203.557 68.3013C202.916 68.5667 202.333 68.9558 201.843 69.4463C201.352 69.9368 200.963 70.5192 200.698 71.1601C200.432 71.801 200.296 72.4879 200.296 73.1816V167.267C200.296 167.961 200.432 168.648 200.698 169.289C200.963 169.929 201.352 170.512 201.843 171.002C202.333 171.493 202.916 171.882 203.557 172.147C204.197 172.413 204.884 172.549 205.578 172.549H258.598L256.612 185.231C256.612 185.231 245.26 191.262 253.242 191.439C261.223 191.617 298.826 191.439 298.826 191.439C298.826 191.439 306.099 191.439 294.569 185.054L292.701 172.549H345.248C345.942 172.549 346.629 172.413 347.27 172.147C347.911 171.882 348.493 171.493 348.984 171.002C349.474 170.512 349.863 169.929 350.129 169.289C350.394 168.648 350.531 167.961 350.53 167.267V73.1816C350.531 72.4879 350.394 71.801 350.129 71.1601C349.863 70.5192 349.474 69.9368 348.984 69.4463C348.493 68.9558 347.911 68.5667 347.27 68.3013C346.629 68.0359 345.942 67.8993 345.248 67.8994Z" fill="#3F3D56"></path> <path d="M345.475 73.4871H205.351V151.886H345.475V73.4871Z" fill="#F2F2F2"></path> <path d="M275.413 71.8907C275.903 71.8907 276.3 71.4936 276.3 71.0038C276.3 70.514 275.903 70.1169 275.413 70.1169C274.923 70.1169 274.526 70.514 274.526 71.0038C274.526 71.4936 274.923 71.8907 275.413 71.8907Z" fill="#F2F2F2"></path> <path d="M275.414 168.736C277.275 168.736 278.784 167.227 278.784 165.366C278.784 163.504 277.275 161.996 275.414 161.996C273.553 161.996 272.044 163.504 272.044 165.366C272.044 167.227 273.553 168.736 275.414 168.736Z" fill="#F2F2F2"></path> <path d="M270.162 201.018V202.792H174.735V201.372L174.867 201.018L177.218 194.632H268.211L270.162 201.018Z" fill="#3F3D56"></path> <path d="M306.885 199.281C306.711 200.025 306.055 200.809 304.572 201.55C299.251 204.211 288.431 200.841 288.431 200.841C288.431 200.841 280.095 199.422 280.095 195.697C280.329 195.536 280.573 195.391 280.826 195.262C283.063 194.079 290.48 191.158 303.633 195.386C304.602 195.69 305.467 196.257 306.133 197.024C306.428 197.314 306.65 197.67 306.78 198.062C306.911 198.455 306.947 198.873 306.885 199.281Z" fill="#3F3D56"></path> <path opacity="0.1" d="M306.885 199.281C300.372 201.777 294.566 201.963 288.608 197.825C286.355 196.16 283.627 195.261 280.825 195.262C283.062 194.079 290.48 191.158 303.633 195.386C304.601 195.69 305.467 196.257 306.133 197.024C306.427 197.314 306.649 197.67 306.78 198.062C306.911 198.455 306.947 198.873 306.885 199.281Z" fill="black"></path> <path d="M298.719 197.825C299.992 197.825 301.025 197.508 301.025 197.116C301.025 196.724 299.992 196.406 298.719 196.406C297.445 196.406 296.413 196.724 296.413 197.116C296.413 197.508 297.445 197.825 298.719 197.825Z" fill="#F2F2F2"></path> <path opacity="0.1" d="M270.162 201.018V202.792H174.735V201.373L174.867 201.018H270.162Z" fill="black"></path> <path d="M53.3632 0.38327C52.3948 0.303754 51.425 0.520393 50.5824 1.00448C49.7551 1.57104 49.2337 2.5636 48.7014 3.48723C46.6664 7.06081 43.9114 10.1728 40.6109 12.6261C38.2069 14.3872 35.1506 16.5831 35.5619 19.8301C35.7789 20.9024 36.175 21.9305 36.7337 22.8712C38.9514 27.3479 45.0032 30.8075 44.4079 35.9159C46.6113 32.2272 43.6641 30.4033 45.8675 26.7147C46.9168 24.9581 48.7396 22.9752 50.3238 24.0783C50.8543 24.4477 51.2026 25.1102 51.7549 25.4343C53.0727 26.2076 54.4748 24.7292 55.6414 23.682C59.664 20.0708 65.3847 21.0168 70.3905 22.142C72.7537 22.6732 75.3494 23.3701 76.7465 25.6287C78.5832 28.5984 75.0014 31.8057 74.0963 35.1632C74.0225 35.4493 74.019 35.7491 74.0862 36.0368C74.1534 36.3245 74.2893 36.5917 74.4822 36.8155C74.6752 37.0392 74.9195 37.213 75.1942 37.3217C75.4689 37.4305 75.7659 37.4711 76.0598 37.4401C77.5618 37.2919 79.3411 37.1705 79.43 36.5114C81.3197 36.5786 83.6353 36.3646 84.445 34.3969C84.6924 33.6183 84.8233 32.8074 84.8331 31.9905C85.1303 28.6851 86.5332 25.6696 87.4626 22.5236C88.392 19.3776 88.7961 15.6907 87.2277 12.9015C86.6679 11.9734 85.9757 11.1321 85.1729 10.4041C76.2726 1.79091 64.5706 0.370485 53.3632 0.38327Z" fill="#2F2E41"></path> <path d="M46.3435 42.3679C46.3435 42.3679 48.2791 58.4985 41.1817 59.7889C34.0843 61.0793 47.6339 83.0168 47.6339 83.0168L79.8949 86.8881L72.1523 61.0793C72.1523 61.0793 66.9905 59.1437 70.2166 46.2393C73.4427 33.3349 46.3435 42.3679 46.3435 42.3679Z" fill="#FFB8B8"></path> <path d="M26.6641 319.49L29.2452 354.977H42.7943L38.9235 319.49H26.6641Z" fill="#FFB8B8"></path> <path d="M126.028 252.387L127.964 282.067L142.804 275.615L136.997 251.097L126.028 252.387Z" fill="#FFB8B8"></path> <path d="M16.9858 183.994C16.9858 183.994 17.631 221.416 21.5024 233.676C25.3737 245.935 24.7285 246.58 24.0833 248.516C23.4381 250.451 22.7928 249.161 22.7928 252.387C22.7928 255.613 21.5024 306.586 22.7928 311.102C24.0833 315.619 18.9215 323.361 22.7928 324.006C26.6642 324.652 44.7303 324.006 45.3755 320.135C46.0208 316.264 40.2138 314.973 42.7947 312.393C45.3756 309.812 49.2469 256.904 49.2469 256.904L58.28 220.126L75.0557 200.769H110.543L121.512 243.354C121.512 243.354 116.995 255.613 120.221 255.613C123.447 255.613 142.804 259.484 142.804 245.29C142.804 231.095 136.352 189.155 135.061 187.865C133.771 186.575 135.706 182.058 133.771 180.122C131.835 178.187 109.252 164.637 100.864 162.056C92.4766 159.475 80.7099 156.404 80.7099 156.404L16.9858 183.994Z" fill="#2F2E41"></path> <path d="M142.804 270.453C142.804 270.453 133.126 267.227 128.609 276.905C124.093 286.584 126.029 289.165 126.029 289.165C126.029 289.165 140.869 294.326 143.45 291.745C144.572 290.623 148.138 290.232 151.808 290.15C157.398 290.025 158.885 282.116 153.606 280.275C153.449 280.22 153.289 280.172 153.128 280.131C147.966 278.841 142.804 270.453 142.804 270.453Z" fill="#2F2E41"></path> <path d="M60.8605 53.014C71.5509 53.014 80.2171 44.3477 80.2171 33.6574C80.2171 22.967 71.5509 14.3008 60.8605 14.3008C50.1702 14.3008 41.5039 22.967 41.5039 33.6574C41.5039 44.3477 50.1702 53.014 60.8605 53.014Z" fill="#FFB8B8"></path> <path d="M35.6969 67.8542C35.6969 67.8542 67.3127 74.3064 75.0554 63.9828C82.798 53.6593 86.0241 93.0177 86.0241 93.0177L89.8954 134.312L84.0884 156.895C84.0884 156.895 53.7631 181.413 44.0848 183.349C34.4065 185.284 19.5664 186.575 19.5664 186.575C19.5664 186.575 24.083 114.955 24.083 113.665C24.083 112.374 35.6969 67.8542 35.6969 67.8542Z" fill="#00A0E3"></path> <path d="M45.3125 55.7533C45.3125 55.7533 38.2783 51.7237 36.3426 55.595C34.4069 59.4664 16.3408 69.1447 14.4051 69.1447C12.4695 69.1447 18.2764 122.698 15.6956 129.15C13.1147 135.602 0.855492 182.703 7.95292 186.575C15.0503 190.446 9.88857 182.703 16.986 192.382C24.0834 202.06 58.9253 202.06 60.861 198.189C62.7966 194.317 45.3757 165.282 48.6018 138.183C51.8279 111.084 56.9897 73.6612 52.4731 68.4994C47.9566 63.3377 45.3125 55.7533 45.3125 55.7533Z" fill="#2F2E41"></path> <path d="M68.6035 60.1117L69.5022 57.0188C69.5022 57.0188 96.348 65.9187 97.6384 71.7256C98.9289 77.5326 98.2836 118.182 93.7671 121.408C89.2506 124.634 82.7984 129.795 87.3149 137.538C91.8315 145.281 96.9932 153.669 100.865 154.314C104.736 154.959 111.833 159.476 109.898 163.992C107.962 168.509 84.734 160.121 84.734 160.121C84.734 160.121 69.2487 148.507 69.894 130.441C70.5392 112.374 68.6035 60.1117 68.6035 60.1117Z" fill="#2F2E41"></path> <path d="M91.1864 136.248L75.7012 165.282C75.7012 165.282 53.1185 188.51 66.0229 191.091C78.9273 193.672 86.0247 169.799 86.0247 169.799L102.8 145.926L91.1864 136.248Z" fill="#FFB8B8"></path> <path d="M54.3067 5.4478C53.5265 5.38999 52.745 5.54157 52.043 5.88687C51.4082 6.35045 50.8851 6.94998 50.5118 7.64166C48.7908 10.2304 46.5474 12.4306 43.9258 14.1009C41.9688 15.3457 39.4809 16.8977 39.8157 19.1927C39.9974 19.9622 40.3209 20.6911 40.7696 21.3421C42.5811 24.5382 43.3023 28.2374 42.8239 31.88L48.2048 24.0587C49.059 22.8171 50.5429 21.4156 51.8325 22.1953C52.2643 22.4564 52.5478 22.9246 52.9974 23.1537C54.0702 23.7003 55.2116 22.6553 56.1612 21.9152C59.4358 19.3628 64.0927 20.0315 68.1676 20.8267C70.0914 21.2022 72.2044 21.6947 73.3416 23.2911C75.2315 25.9441 73.2581 29.7774 74.3611 32.8422C74.6698 32.626 74.932 32.3501 75.1322 32.0307C75.3323 31.7113 75.4663 31.355 75.5261 30.9829C77.0645 31.0305 78.9494 30.8792 79.6085 29.4884C79.809 28.9433 79.9159 28.3683 79.9245 27.7876C80.1665 25.4513 81.3085 23.32 82.065 21.0964C82.8216 18.8729 83.1505 16.267 81.8738 14.2956C81.4067 13.6276 80.843 13.0327 80.2011 12.5304C72.9559 6.4427 63.43 5.43877 54.3067 5.4478Z" fill="#2F2E41"></path> <path d="M91.1862 69.1445L97.1978 70.7402C97.1978 70.7402 111.188 106.567 107.962 131.086C104.736 155.604 102.8 150.442 102.8 150.442C102.8 150.442 97.6384 138.828 86.0244 141.409L91.1862 69.1445Z" fill="#2F2E41"></path> <path d="M27.5583 350.287C26.0024 352.401 26.3144 355.424 24.9361 357.658C23.7414 359.595 21.4899 360.61 19.9956 362.326C19.5188 362.897 19.0937 363.508 18.7254 364.154C17.3392 366.476 16.2125 369.451 17.5777 371.786C18.6759 373.664 20.9844 374.397 23.1015 374.898C25.7774 375.53 28.5577 376.036 31.2645 375.553C33.9713 375.07 36.6167 373.412 37.5818 370.838C37.7715 370.19 37.997 369.554 38.2572 368.931C39.7243 366.043 44.3261 366.012 45.8276 363.141C46.8784 361.133 45.9125 358.704 44.947 356.653L41.9981 350.388C41.0195 348.309 37.0524 349.505 34.9842 349.007C32.2869 348.357 29.4988 347.641 27.5583 350.287Z" fill="#2F2E41"></path> <path d="M6.01758 149.152L33.1168 191.091C33.1168 191.091 49.8925 212.383 55.0543 202.705C60.2161 193.027 36.9881 176.896 36.9881 176.896L19.5672 144.635L6.01758 149.152Z" fill="#FFB8B8"></path> <path d="M19.5668 70.435L14.4051 69.1445C14.4051 69.1445 4.08153 72.3706 1.50066 85.9203C-1.08022 99.4699 0.855432 153.668 4.08153 154.314C7.30763 154.959 20.0152 144.877 22.0493 147.014C24.0834 149.152 17.6311 138.183 19.5668 132.376C21.5024 126.569 19.5668 70.435 19.5668 70.435Z" fill="#2F2E41"></path> <path d="M262.151 99.2356H245.475V103.25H262.151V99.2356Z" fill="#00A0E3"></path> <path d="M319.901 99.2356H314.033V103.25H319.901V99.2356Z" fill="#00A0E3"></path> <path d="M331.636 99.2356H325.769V103.25H331.636V99.2356Z" fill="#00A0E3"></path> <path d="M307.857 99.2356H268.019V103.25H307.857V99.2356Z" fill="#00A0E3"></path> <path d="M241.151 125.177H224.475V129.191H241.151V125.177Z" fill="#00A0E3"></path> <path d="M298.901 125.177H293.033V129.191H298.901V125.177Z" fill="#00A0E3"></path> <path d="M310.636 125.177H304.769V129.191H310.636V125.177Z" fill="#00A0E3"></path> <path d="M286.857 125.177H247.019V129.191H286.857V125.177Z" fill="#00A0E3"></path> <path d="M310.018 108.192H293.342V112.206H310.018V108.192Z" fill="#00A0E3"></path> <path d="M332.562 108.192H315.886V112.206H332.562V108.192Z" fill="#00A0E3"></path> <path d="M230.342 108.192H224.475V112.206H230.342V108.192Z" fill="#00A0E3"></path> <path d="M242.078 108.192H236.21V112.206H242.078V108.192Z" fill="#00A0E3"></path> <path d="M287.783 108.192H247.945V112.206H287.783V108.192Z" fill="#00A0E3"></path> <path d="M275.43 116.838H258.754V120.853H275.43V116.838Z" fill="#00A0E3"></path> <path d="M252.886 116.838H236.21V120.853H252.886V116.838Z" fill="#00A0E3"></path> <path d="M230.342 116.838H224.475V120.853H230.342V116.838Z" fill="#00A0E3"></path> <path d="M332.562 116.838H326.694V120.853H332.562V116.838Z" fill="#00A0E3"></path> <path d="M320.827 116.838H280.989V120.853H320.827V116.838Z" fill="#00A0E3"></path> </svg> 