<svg xmlns="http://www.w3.org/2000/svg" width="24" height="30" viewBox="0 0 24 30"><g><g><g><path fill="#303956" d="M14.227 25.554a.953.953 0 0 0-.935.75c-.073.332-.198.604-.367.803-.096.11-.376.434-1.185.434-.81 0-1.09-.331-1.185-.434-.17-.199-.294-.471-.368-.802a.953.953 0 0 0-.934-.75.96.96 0 0 0-.935 1.17c.368 1.64 1.545 2.73 3.422 2.73 1.876 0 3.054-1.083 3.422-2.73a.963.963 0 0 0-.935-1.17z"/></g><g><path fill="#303956" d="M20.357 22.243H3.197a.323.323 0 0 1-.243-.537 8.915 8.915 0 0 0 1.545-2.458c.706-1.663 1.052-3.79 1.052-6.49 0-2.745.515-4.894 1.538-6.388.913-1.339 2.053-1.847 2.848-2.03.618-.148 1.06-.427 1.369-.773a.582.582 0 0 1 .875-.015c.376.42.883.67 1.384.787.794.184 1.935.692 2.847 2.031 1.023 1.494 1.538 3.643 1.538 6.388 0 2.7.346 4.827 1.053 6.49a9.016 9.016 0 0 0 1.582 2.494c.162.199.03.5-.228.5zm2.87-.427c-1.134-1.494-3.363-2.37-3.363-9.058 0-6.866-3.032-9.625-5.858-10.288-.265-.066-.456-.154-.456-.434v-.213c0-.979-.795-1.81-1.766-1.81h-.044c-.972 0-1.766.831-1.766 1.81v.213c0 .272-.192.368-.457.434-2.833.67-5.857 3.422-5.857 10.288 0 6.688-2.23 7.557-3.363 9.058-.728.964-.037 2.34 1.17 2.34H22.08c1.184 0 1.869-1.383 1.147-2.34z"/></g></g></g></svg>