<svg xmlns="http://www.w3.org/2000/svg" width="19" height="20" viewBox="0 0 19 20"><g><g><g><path fill="#48526b" d="M14.067 9.133a.543.543 0 0 0-.904 0l-2.011 3.017h4.926z"/></g><g><path fill="#48526b" d="M10.9 18.667c0 .3.243.544.543.544h1.665v-5.975H10.9z"/></g><g><path fill="#48526b" d="M14.195 19.21h1.593c.3 0 .543-.243.543-.543v-5.431h-2.136z"/></g><g><path fill="#48526b" d="M3.295 12.693h3.26v1.086h-3.26z"/></g><g><path fill="#48526b" d="M15.788 4.002h-3.26a.543.543 0 0 1 0-1.086h3.26a.543.543 0 0 1 0 1.086zm-8.69 0a.543.543 0 1 1 0-1.086.543.543 0 0 1 0 1.086zm-2.173 0a.543.543 0 1 1 0-1.086.543.543 0 0 1 0 1.086zm-2.173 0a.543.543 0 1 1 0-1.086.543.543 0 0 1 0 1.086zM16.91.743H1.63C.73.743 0 1.474 0 2.373v2.716h18.54V2.373c0-.899-.731-1.63-1.63-1.63z"/></g><g><path fill="#48526b" d="M2.209 12.15c0-.3.243-.544.543-.544h4.345c.3 0 .543.244.543.544v2.172c0 .3-.243.543-.543.543H2.752a.543.543 0 0 1-.543-.543zm.543-2.716h7.604a.543.543 0 0 1 0 1.086H2.752a.543.543 0 0 1 0-1.086zM0 15.409c0 .898.731 1.629 1.63 1.629h8.183v-4.345c0-.323.095-.636.274-.904 2.376-3.565 2.203-3.317 2.314-3.442H2.752a.543.543 0 0 1 0-1.086h9.777c.334 0 .595.302.534.64a1.627 1.627 0 0 1 1.908.629l2.173 3.259c.179.268.273.581.273.904v4.264a1.632 1.632 0 0 0 1.123-1.548V6.175H0z"/></g></g></g></svg>