<svg xmlns="http://www.w3.org/2000/svg" width="27" height="23" viewBox="0 0 27 23"><g><g><g><g><path fill="#fff" d="M22.884 8.291H10.93a.377.377 0 0 0 0 .753h11.954a.377.377 0 1 0 0-.753z"/></g><g><path fill="#fff" d="M22.884 11.17H10.93a.377.377 0 0 0 0 .754h11.954a.377.377 0 1 0 0-.753z"/></g><g><path fill="#fff" d="M22.884 14.05H10.93a.377.377 0 0 0 0 .754h11.954a.377.377 0 0 0 0-.754z"/></g><g><path fill="#fff" d="M25.518 16.209c0 .782-.637 1.427-1.42 1.437a.377.377 0 0 0-.371.377v3.933l-3.073-3.89a1.096 1.096 0 0 0-.865-.42H9.733a1.44 1.44 0 0 1-1.437-1.437V7.188A1.44 1.44 0 0 1 9.733 5.75H24.08a1.44 1.44 0 0 1 1.438 1.438zM24.08 4.997H9.733a2.193 2.193 0 0 0-2.19 2.19v9.022c0 1.208.982 2.19 2.19 2.19H19.79c.108 0 .208.05.274.134l3.248 4.11a.647.647 0 0 0 .729.214.648.648 0 0 0 .44-.62v-3.875a2.201 2.201 0 0 0 1.791-2.153V7.188c0-1.208-.983-2.191-2.19-2.191z"/></g><g><path fill="#fff" d="M6.105 11.225c-.257.037-.488.17-.65.374l-2.587 3.276V11.59a.377.377 0 0 0-.372-.376 1.207 1.207 0 0 1-1.187-1.202V2.159c0-.663.54-1.202 1.203-1.202H15c.663 0 1.203.54 1.203 1.202v1.453a.377.377 0 0 0 .753 0V2.16A1.958 1.958 0 0 0 15 .203H2.51A1.958 1.958 0 0 0 .557 2.16v7.854c0 .937.671 1.73 1.559 1.914v3.334c0 .267.163.497.416.585a.612.612 0 0 0 .69-.201l2.826-3.58c.04-.051.099-.085.164-.094a.377.377 0 1 0-.106-.746z"/></g></g></g></g></svg>