<svg xmlns="http://www.w3.org/2000/svg" width="19" height="22" viewBox="0 0 19 22"><g><g><g><path fill="#48526b" d="M6 3.5a3.5 3.5 0 1 1 7 0 3.5 3.5 0 0 1-7 0z"/></g><g><path fill="#48526b" d="M11.963 7.886c-.776.503-1.7.797-2.693.797a4.929 4.929 0 0 1-2.693-.797 7.537 7.537 0 0 0-2.345 1.432l5.038 1.889 5.038-1.89a7.537 7.537 0 0 0-2.345-1.431z"/></g><g><path fill="#48526b" d="M17.03 13.425h-.43a.647.647 0 0 0-.647.647v1.725c0 .357.29.646.647.646h.43a1.509 1.509 0 1 0 0-3.018z"/></g><g><path fill="#48526b" d="M2.003 10.16a.647.647 0 0 0-.278.532v1.44h.215c1.07 0 1.94.87 1.94 1.94v1.725c0 1.07-.87 1.94-1.94 1.94h-.215v1.362c0 .27.167.511.42.606l6.478 2.43v-9.79l-6.025-2.259a.646.646 0 0 0-.595.074z"/></g><g><path fill="#48526b" d="M14.66 15.797v-1.725c0-1.07.87-1.94 1.94-1.94h.215v-1.44a.647.647 0 0 0-.874-.606l-6.024 2.26v9.789l6.479-2.43a.647.647 0 0 0 .42-.606v-1.362H16.6c-1.07 0-1.94-.87-1.94-1.94z"/></g><g><path fill="#48526b" d="M2.587 15.797v-1.725a.647.647 0 0 0-.647-.647h-.43a1.509 1.509 0 1 0-.001 3.018h.431c.357 0 .647-.29.647-.646z"/></g></g></g></svg>