<svg xmlns="http://www.w3.org/2000/svg" width="48" height="60" viewBox="0 0 48 60"><g><g><g><g><path fill="#b0d1cf" d="M35.473 14.883a.874.874 0 0 1-.875-.874V7.816c0-1.045.85-1.895 1.896-1.895h5.232a.874.874 0 0 1 0 1.749h-5.232a.147.147 0 0 0-.147.146v6.192a.874.874 0 0 1-.874.875z"/></g><g><path fill="#b0d1cf" d="M12.545 14.883a.874.874 0 0 1-.874-.874V7.816a.147.147 0 0 0-.147-.146H6.291a.874.874 0 0 1 0-1.75h5.233c1.045 0 1.895.851 1.895 1.896v6.193a.874.874 0 0 1-.874.874z"/></g><g><path fill="#b0d1cf" d="M24.009 14.883a.874.874 0 0 1-.874-.874V6.462a.874.874 0 0 1 1.748 0v7.547a.874.874 0 0 1-.874.874z"/></g><g><path fill="#b0d1cf" d="M11.524 53.768H6.291a.874.874 0 0 1 0-1.75h5.233c.08 0 .147-.065.147-.146V45.68a.874.874 0 1 1 1.748 0v6.192c0 1.045-.85 1.896-1.895 1.896z"/></g><g><path fill="#b0d1cf" d="M41.726 53.768h-5.232a1.898 1.898 0 0 1-1.896-1.896V45.68a.874.874 0 1 1 1.75 0v6.192c0 .081.065.147.146.147h5.232a.874.874 0 0 1 0 1.749z"/></g><g><path fill="#b0d1cf" d="M24.009 54.1a.874.874 0 0 1-.874-.874V45.68a.874.874 0 0 1 1.748 0v7.546a.874.874 0 0 1-.874.874z"/></g></g><g><path fill="#dcf9f7" d="M42.783 15.211v30.08a.685.685 0 0 1-.685.686H5.92a.685.685 0 0 1-.686-.686v-30.08c0-.828.671-1.499 1.498-1.499h34.552a1.5 1.5 0 0 1 1.5 1.5z"/></g><g><path fill="#b0d1cf" d="M42.783 15.211v5.964H5.234V15.21c0-.828.671-1.499 1.498-1.499h34.552a1.5 1.5 0 0 1 1.5 1.5z"/></g><g><path fill="#5089dd" d="M42.783 19.372H5.234v-4.16c0-.829.671-1.5 1.5-1.5h34.55c.828 0 1.499.671 1.499 1.5v4.16z"/></g><g><path fill="#dcf9f7" d="M28.407 17.548H10.271a.9.9 0 1 1 0-1.802h18.136a.9.9 0 0 1 0 1.802z"/></g><g><path fill="#14c4bb" d="M32.218 17.492a.9.9 0 0 1-.9-.9v-.1a.9.9 0 1 1 1.8 0v.1a.9.9 0 0 1-.9.9z"/></g><g><path fill="#f96982" d="M34.982 17.492a.9.9 0 0 1-.9-.9v-.1a.9.9 0 1 1 1.801 0v.1a.9.9 0 0 1-.9.9z"/></g><g><path fill="#f9b767" d="M37.747 17.492a.9.9 0 0 1-.901-.9v-.1a.9.9 0 1 1 1.801 0v.1a.9.9 0 0 1-.9.9z"/></g><g><g><path fill="#ff433e" d="M46.932 8.978h-3.585c-.6 0-1.086-.486-1.086-1.086V4.307c0-.6.486-1.086 1.086-1.086h3.585c.6 0 1.086.486 1.086 1.086v3.585c0 .6-.486 1.086-1.086 1.086z"/></g><g><path fill="#ff433e" d="M1.086 8.978H4.67c.6 0 1.086-.486 1.086-1.086V4.307c0-.6-.487-1.086-1.086-1.086H1.086C.486 3.221 0 3.707 0 4.307v3.585c0 .6.486 1.086 1.086 1.086z"/></g></g><g><path fill="#14c4bb" d="M21.13 1.086V4.67c0 .6.487 1.086 1.086 1.086h3.585c.6 0 1.086-.487 1.086-1.086V1.086c0-.6-.486-1.086-1.086-1.086h-3.585c-.6 0-1.085.486-1.085 1.086z"/></g><g><g><path fill="#ff433e" d="M1.086 50.71H4.67c.6 0 1.086.487 1.086 1.087v3.584c0 .6-.487 1.086-1.086 1.086H1.086c-.6 0-1.086-.486-1.086-1.086v-3.584c0-.6.486-1.086 1.086-1.086z"/></g><g><path fill="#ff433e" d="M46.932 50.71h-3.585c-.6 0-1.086.487-1.086 1.087v3.584c0 .6.486 1.086 1.086 1.086h3.585c.6 0 1.086-.486 1.086-1.086v-3.584c0-.6-.486-1.086-1.086-1.086z"/></g></g><g><path fill="#14c4bb" d="M26.887 58.603v-3.585c0-.6-.486-1.086-1.086-1.086h-3.584c-.6 0-1.086.486-1.086 1.086v3.585c0 .6.486 1.086 1.086 1.086H25.8c.6 0 1.086-.487 1.086-1.086z"/></g><g><g><path fill="#2358c1" d="M15.354 37.274a.898.898 0 0 1-.637-.264l-4.005-4.005a.9.9 0 0 1 0-1.274l4.005-4.005A.9.9 0 0 1 15.99 29l-3.368 3.368 3.368 3.368a.9.9 0 0 1-.637 1.538z"/></g><g><path fill="#2358c1" d="M32.664 37.274a.9.9 0 0 1-.637-1.538l3.368-3.368L32.027 29a.9.9 0 1 1 1.274-1.274l4.005 4.005a.9.9 0 0 1 0 1.274l-4.005 4.005a.898.898 0 0 1-.637.264z"/></g><g><path fill="#2358c1" d="M18.75 37.274a.9.9 0 0 1-.794-1.325l3.995-7.478a.9.9 0 1 1 1.589.848l-3.994 7.479a.9.9 0 0 1-.796.476z"/></g><g><path fill="#2358c1" d="M23.754 37.175a.9.9 0 0 1-.9-.9v-.092a.9.9 0 0 1 1.801 0v.091a.9.9 0 0 1-.9.9z"/></g><g><path fill="#2358c1" d="M26.688 37.175a.9.9 0 0 1-.9-.9v-.092a.9.9 0 1 1 1.8 0v.091a.9.9 0 0 1-.9.9z"/></g><g><path fill="#2358c1" d="M29.622 37.175a.9.9 0 0 1-.9-.9v-.092a.9.9 0 1 1 1.8 0v.091a.9.9 0 0 1-.9.9z"/></g></g></g></g></svg>