<svg xmlns="http://www.w3.org/2000/svg" width="26" height="27" viewBox="0 0 26 27"><g><g><g><path fill="#475673" d="M18.49 15.929a1.897 1.897 0 0 1 0 2.684l-3.107 3.152-1.802-1.824a2.807 2.807 0 0 1-.004-3.94 16.084 16.084 0 0 0 4.662-2.45l.001.002a1.898 1.898 0 0 0 .25 2.376z"/></g><g><path fill="#475673" d="M9.495 6.934a1.897 1.897 0 0 0 2.375.249 16.134 16.134 0 0 0-2.49 4.704 2.806 2.806 0 0 1-3.898-.045L3.658 10.04l3.153-3.106a1.897 1.897 0 0 1 2.683 0z"/></g><g><path fill="#ed6337" d="M24.646.78c.001 1.236-.14 2.468-.42 3.672l-.017-.004a6.904 6.904 0 0 1-3.24-3.225l-.008-.017A16.087 16.087 0 0 1 24.646.78z"/></g><g><path fill="#e5f5fd" d="M10.347 14.084L9.014 12.75a16.134 16.134 0 0 1 2.75-5.568 16.276 16.276 0 0 1 9.197-5.977l.008.017a6.904 6.904 0 0 0 3.24 3.225l.018.004a16.083 16.083 0 0 1-2.99 6.25 16.2 16.2 0 0 1-7.66 5.406c-.306.101-.616.193-.93.276l-1.224-1.224z"/></g><g><path fill="#ed6337" d="M11.423 15.16l-.678 2.74-3.218-3.219 2.82-.597z"/></g><g><path fill="#fadf4a" d="M9.058 17.55c.001.584-.435 1.078-1.015 1.149l-1.475.183.183-1.475a1.158 1.158 0 0 1 2.307.143z"/></g><g><path fill="#50a6ea" d="M15.166 8.252a2.009 2.009 0 1 1 4.018 0 2.009 2.009 0 0 1-4.018 0z"/></g><g><path fill="#a6b7d0" d="M20.969 1.223l-.008-.017a16.276 16.276 0 0 0-9.197 5.977 16.134 16.134 0 0 0-2.75 5.568l1.06 1.06a16.133 16.133 0 0 1 2.75-5.568h.001a16.285 16.285 0 0 1 8.836-5.886 6.902 6.902 0 0 1-.692-1.134z"/></g><g><path fill="#f9d438" d="M6.977 21.312h-.502a.318.318 0 0 1 0-.636h.502c.174 0 .347-.02.515-.061a.318.318 0 0 1 .148.62 2.85 2.85 0 0 1-.663.077z"/></g><g><path fill="#f9d438" d="M5.326 21.312h-.869a.318.318 0 0 1-.312-.256 3.046 3.046 0 0 1 .544-2.228l-.24-.006a.318.318 0 0 1-.31-.318 2.86 2.86 0 0 1 .854-2.044 2.795 2.795 0 0 1 2.617-.754 2.842 2.842 0 0 1 2.183 2.416c.11.87-.19 1.74-.81 2.359a.318.318 0 1 1-.45-.45 2.188 2.188 0 0 0 .593-2.039 2.206 2.206 0 0 0-2.132-1.72h-.016a2.17 2.17 0 0 0-1.537.64c-.35.345-.576.795-.644 1.282l.602.015a.318.318 0 0 1 .203.557 2.45 2.45 0 0 0-.855 1.91h.58a.318.318 0 0 1 0 .636z"/></g><g><g><path fill="#ccd3df" d="M20.3 14.038a.318.318 0 0 1-.203-.564c.218-.18.435-.37.643-.562a.318.318 0 1 1 .432.468c-.217.2-.442.397-.668.585a.317.317 0 0 1-.203.073z"/></g><g><path fill="#ccd3df" d="M21.96 12.453a.318.318 0 0 1-.235-.532 15.945 15.945 0 0 0 2.403-3.483c.42-.825.765-1.686 1.033-2.571a.318.318 0 1 1 .609.184 16.4 16.4 0 0 1-3.574 6.297.318.318 0 0 1-.236.105z"/></g><g><path fill="#ccd3df" d="M.425 13.486a.318.318 0 0 1-.225-.543l.244-.244a.318.318 0 1 1 .45.45l-.244.244a.317.317 0 0 1-.225.093z"/></g><g><path fill="#ccd3df" d="M1.36 12.55a.318.318 0 0 1-.225-.543l1.089-1.089a.318.318 0 1 1 .45.45l-1.089 1.09a.317.317 0 0 1-.225.093z"/></g><g><path fill="#ccd3df" d="M.904 14.676a.318.318 0 0 1-.225-.544l1.28-1.28a.318.318 0 0 1 .45.45l-1.28 1.28a.318.318 0 0 1-.225.094z"/></g><g><path fill="#ccd3df" d="M2.81 12.77a.318.318 0 0 1-.225-.544l.474-.473a.318.318 0 1 1 .45.45l-.474.473a.317.317 0 0 1-.225.093z"/></g><g><path fill="#ccd3df" d="M.318 16.93a.318.318 0 0 1-.225-.542l1.414-1.415a.318.318 0 1 1 .45.45L.544 16.838a.317.317 0 0 1-.225.093z"/></g><g><path fill="#ccd3df" d="M2.461 14.788a.318.318 0 0 1-.225-.544l1.657-1.657a.318.318 0 1 1 .45.45l-1.657 1.657a.317.317 0 0 1-.225.094z"/></g><g><path fill="#ccd3df" d="M10.586 23.648a.318.318 0 0 1-.225-.544l.244-.243a.318.318 0 1 1 .45.45l-.243.244a.317.317 0 0 1-.226.093z"/></g><g><path fill="#ccd3df" d="M11.522 22.712a.318.318 0 0 1-.225-.543l1.089-1.089a.318.318 0 1 1 .45.45l-1.09 1.09a.317.317 0 0 1-.224.092z"/></g><g><path fill="#ccd3df" d="M11.066 24.837a.318.318 0 0 1-.225-.543l1.28-1.28a.318.318 0 1 1 .45.45l-1.28 1.28a.318.318 0 0 1-.225.093z"/></g><g><path fill="#ccd3df" d="M12.972 22.931a.318.318 0 0 1-.225-.543l.473-.473a.318.318 0 1 1 .45.45l-.473.473a.318.318 0 0 1-.225.093z"/></g><g><path fill="#ccd3df" d="M10.48 27.093a.318.318 0 0 1-.225-.544l1.414-1.414a.318.318 0 1 1 .45.45L10.705 27a.317.317 0 0 1-.225.094z"/></g><g><path fill="#ccd3df" d="M12.623 24.95a.318.318 0 0 1-.225-.544l1.657-1.657a.318.318 0 1 1 .45.45l-1.657 1.657a.318.318 0 0 1-.225.093z"/></g></g><g><path fill="#50a6ea" d="M23.068 18.886a1.784 1.784 0 0 1-1.121-1.124.318.318 0 0 0-.604 0c-.177.53-.592.946-1.121 1.124a.318.318 0 0 0 0 .604c.529.179.944.595 1.12 1.125a.318.318 0 0 0 .605 0c.177-.53.592-.946 1.121-1.125a.318.318 0 0 0 0-.604z"/></g><g><path fill="#50a6ea" d="M3.334 6.102a1.784 1.784 0 0 1-1.121-1.125.318.318 0 0 0-.604 0c-.177.53-.592.946-1.122 1.125a.318.318 0 0 0 0 .603c.53.179.945.595 1.122 1.125a.318.318 0 0 0 .604 0c.177-.53.592-.946 1.12-1.125a.318.318 0 0 0 0-.603z"/></g><g><path fill="#d8ff33" d="M6.05 3.645a.584.584 0 1 1-.001-1.167.584.584 0 0 1 .001 1.167z"/></g><g><path fill="#d8ff33" d="M20.639 24.387a.584.584 0 1 1-.002-1.167.584.584 0 0 1 .002 1.167z"/></g></g></g></svg>