<svg xmlns="http://www.w3.org/2000/svg" width="19" height="18" viewBox="0 0 19 18"><g><g><g><path fill="#48526b" d="M5.297 9.743h-.662V9.08h.662zm-1.324 0H3.31V9.08h.662zm1.986-.662h.662v.662H5.96zm.234 1.752l1.09 1.09V8.087H2.65v2.649h3.31c.088 0 .172.035.234.097z"/></g><g><path fill="#48526b" d="M0 17.026c0 .183.148.331.331.331H18.21a.331.331 0 0 0 .33-.33H15.56v-.663h2.98v-.331h-6.953v.331a.662.662 0 0 1-.662.662h-3.31a.662.662 0 0 1-.663-.662v-.331H0v.331h2.98v.662z"/></g><g><path fill="#48526b" d="M1.986 7.756c0-.183.149-.33.331-.33h5.298c.182 0 .33.147.33.33v4.966a.331.331 0 0 1-.565.234l-1.558-1.558H2.317a.331.331 0 0 1-.33-.331zm7.615 5.628h5.297v.663H9.601zm0-1.324h5.297v.662H9.601zm0-1.324h1.324v.662H9.601zm1.986 0h3.311v.662h-3.31zM.662 15.37h17.216V5.108a.993.993 0 0 0-.994-.994h-.016a3.647 3.647 0 0 1-3.486 3.309L11.16 9.646a.331.331 0 0 1-.565-.234V7.425h-.662a3.645 3.645 0 0 1-3.625-3.31H1.655a.993.993 0 0 0-.993.993z"/></g><g><path fill="#48526b" d="M8.608 4.446h5.959v.662h-5.96zm0-1.325h5.959v.662h-5.96zm0-1.324h5.959v.662h-5.96zM6.952 3.783a2.983 2.983 0 0 0 2.98 2.98h.993c.183 0 .331.148.331.331v1.518L13.01 6.86a.331.331 0 0 1 .234-.097 2.983 2.983 0 0 0 2.98-2.98v-.662a2.983 2.983 0 0 0-2.98-2.98H9.932a2.983 2.983 0 0 0-2.98 2.98z"/></g><g><path fill="#48526b" d="M7.615 16.033h3.31v.331h-3.31z"/></g></g></g></svg>