<svg xmlns="http://www.w3.org/2000/svg" width="19" height="19" viewBox="0 0 19 19"><g><g><path fill="#fff" d="M18.042 8.502L18.04 8.5 10.477.938a1.695 1.695 0 0 0-1.207-.5c-.456 0-.885.178-1.207.5l-7.56 7.56-.007.007a1.709 1.709 0 0 0 .003 2.41 1.697 1.697 0 0 0 1.185.501h.302v5.566a2 2 0 0 0 1.998 1.998h2.959c.3 0 .543-.243.543-.544v-4.363c0-.503.409-.912.911-.912h1.746c.502 0 .911.409.911.912v4.363c0 .3.243.544.543.544h2.96a2 2 0 0 0 1.997-1.998v-5.566h.28c.456 0 .884-.178 1.207-.5a1.71 1.71 0 0 0 0-2.413z"/></g></g></svg>