<svg xmlns="http://www.w3.org/2000/svg" width="36" height="62" viewBox="0 0 36 62"><g><g><g><path fill="#319cd6" d="M31.486 61.727H3.616A3.617 3.617 0 0 1 0 58.11V3.617A3.617 3.617 0 0 1 3.617 0h27.87a3.617 3.617 0 0 1 3.616 3.617V58.11a3.617 3.617 0 0 1-3.617 3.617z"/></g><g><path fill="#55d8ef" d="M17.552 0H3.617A3.617 3.617 0 0 0 0 3.617V58.11a3.617 3.617 0 0 0 3.617 3.617h13.935z"/></g><g><g><path fill="#d2d6e3" d="M35.103 8.912V3.617A3.617 3.617 0 0 0 31.486 0H3.616A3.617 3.617 0 0 0 0 3.617v5.295z"/></g><g><path fill="#d2d6e3" d="M0 49.665v8.445a3.617 3.617 0 0 0 3.617 3.617h27.87a3.617 3.617 0 0 0 3.616-3.617v-8.445z"/></g></g><g><g><path fill="#f2f4f9" d="M17.552 0H3.617A3.617 3.617 0 0 0 0 3.617v5.295h17.552z"/></g><g><path fill="#f2f4f9" d="M17.552 49.665H0v8.445a3.617 3.617 0 0 0 3.617 3.617h13.935z"/></g></g><g><path fill="#3a2370" d="M26.779 33.494H8.325a1.808 1.808 0 0 0 0 3.617h18.453a1.808 1.808 0 0 0 0-3.617z"/></g><g><path fill="#3a458f" d="M17.552 33.494H8.325a1.808 1.808 0 1 0 0 3.617h9.227z"/></g><g><path fill="#3a2370" d="M26.779 40.415H8.325a1.808 1.808 0 0 0 0 3.616h18.453a1.808 1.808 0 0 0 0-3.616z"/></g><g><path fill="#3a458f" d="M17.552 40.415H8.325a1.808 1.808 0 0 0 0 3.616h9.227z"/></g><g><path fill="#ffae42" d="M26.176 15.263H8.928a2.414 2.414 0 0 0-2.412 2.411V27.78a2.414 2.414 0 0 0 2.412 2.412h17.248a2.414 2.414 0 0 0 2.41-2.412V17.674a2.414 2.414 0 0 0-2.41-2.411z"/></g><g><path fill="#ffdf63" d="M17.552 15.263H8.928a2.414 2.414 0 0 0-2.412 2.411V27.78a2.414 2.414 0 0 0 2.412 2.412h8.624z"/></g><g><path fill="#b1b4bf" d="M18.715 54.803h-2.327a1.808 1.808 0 1 0 0 3.617h2.327a1.808 1.808 0 0 0 0-3.617z"/></g><g><path fill="#d2d6e3" d="M17.552 54.803h-1.164a1.808 1.808 0 0 0 0 3.617h1.164z"/></g></g></g></svg>