<?xml version="1.0" encoding="UTF-8"?>
<svg id="SVGDoc" width="18" height="25" xmlns="http://www.w3.org/2000/svg" version="1.1" xmlns:xlink="http://www.w3.org/1999/xlink" xmlns:avocode="https://avocode.com/" viewBox="0 0 18 25"><defs></defs><desc>Generated with Avocode.</desc><g><g><title>person</title><path d="M14.05935,23.42413c0,0.23218 -0.18823,0.42043 -0.42042,0.42043h-1.26128c-0.23217,0 -0.42044,-0.18825 -0.42044,-0.42043c0,-0.23218 0.18827,-0.42043 0.42044,-0.42043h1.26128c0.23219,0 0.42042,0.18825 0.42042,0.42043zM9.38212,15.75794c2.63701,0 4.78233,-2.14533 4.78233,-4.78234v-3.41044c0,-1.15901 -0.94302,-2.10197 -2.10213,-2.10197h-5.36043c-1.1591,0 -2.10211,0.94301 -2.10211,2.10213v3.41028c0,2.63701 2.14532,4.78234 4.78234,4.78234zM10.559,18.04006c0.04944,0.22687 -0.09439,0.45086 -0.32127,0.5003c-1.10645,0.24106 -2.23177,-0.00026 -3.12775,-0.61182c-0.88699,0.95053 -2.05883,0.8274 -1.90195,0.8274c-1.9337,-0.00006 -3.49862,1.56466 -3.49862,3.49852v2.48351c0,0.23218 -0.18824,0.42043 -0.42043,0.42043c-0.23217,0 -0.42043,-0.18825 -0.42043,-0.42043v-2.48351c0,-2.39832 1.94076,-4.33937 4.33937,-4.33937c0.97023,0 1.75681,-0.78173 1.75681,-1.75223v-0.11073c-1.83512,-0.87748 -3.12319,-2.72141 -3.20171,-4.86868c-0.7552,-0.18157 -1.31787,-0.85751 -1.31787,-1.66173v-2.17953c-0.02296,-1.06683 0.13541,-3.73879 2.08362,-5.61673c2.40562,-2.31896 6.26346,-2.17165 9.10017,-0.80606c0.27648,0.13322 0.31847,0.50677 0.08886,0.70022c1.43709,0.35053 2.67628,1.23395 3.4724,2.49827c0.0411,0.06511 0.11636,0.16733 0.09669,0.3304c-0.01219,0.10148 -0.04241,0.18735 -0.1206,0.26671c-0.5124,0.51965 -0.79456,1.20825 -0.79456,1.939v2.86783c0,0.23218 -0.18824,0.42042 -0.42043,0.42042c-0.23218,0 -0.42042,-0.18825 -0.42042,-0.42042v-2.86783c0,-0.8428 0.28794,-1.64276 0.81678,-2.28538c-0.80607,-1.15281 -2.06367,-1.89423 -3.48595,-2.04653l-0.73895,-0.07915c-0.4321,-0.04625 -0.51686,-0.64152 -0.1153,-0.8068l0.33607,-0.13837c-4.37695,-1.52588 -9.05759,0.16954 -9.05759,6.03983v2.18411c0,0.33361 0.19214,0.62354 0.47298,0.76917v-2.72557c0,-1.62274 1.32024,-2.94298 2.94296,-2.94298h5.36043c1.62275,0 2.94299,1.32014 2.94299,2.94282v3.44239c0,3.65633 -3.57298,6.43356 -7.20872,5.36321c-0.02365,0.29997 -0.09833,0.58943 -0.21999,0.8585c0.70727,0.4857 1.6004,0.68162 2.48209,0.48948c0.22687,-0.0494 0.45086,0.09444 0.50031,0.32131zM17.89573,22.25445v2.48351c0,0.23218 -0.18824,0.42043 -0.42043,0.42043c-0.23218,0 -0.42043,-0.18825 -0.42043,-0.42043v-2.48351c0,-1.93369 -1.56477,-3.49857 -3.49863,-3.49852c-0.91499,0 -1.74518,-0.46615 -2.22083,-1.24698c-0.12077,-0.19829 -0.05797,-0.45701 0.14037,-0.57777c0.19827,-0.12082 0.45694,-0.05796 0.57776,0.14037c0.32173,0.52821 0.88348,0.84353 1.5027,0.84353c2.39838,-0.00011 4.33949,1.94078 4.33949,4.33937z" fill="#ffffff" fill-opacity="1"></path></g></g></svg>