<svg xmlns="http://www.w3.org/2000/svg" width="58" height="58" viewBox="0 0 58 58"><g><g><g><path fill="#feef55" d="M48.793 16.302h-10.16V26.35H14.068v12.282c0 1.233 1 2.233 2.234 2.233v7.927a8.374 8.374 0 0 0 8.374 8.374h7.816a8.374 8.374 0 0 0 8.374-8.374v-4.578H30.864c-.902 0-1.678-.693-1.72-1.593a1.675 1.675 0 0 1 1.673-1.756h17.976a8.374 8.374 0 0 0 8.374-8.374v-7.816a8.374 8.374 0 0 0-8.374-8.374z"/></g><g><path fill="#fedc00" d="M48.793 16.302h-10.16V26.35h-10.05v30.816h3.909a8.374 8.374 0 0 0 8.374-8.374v-4.578H30.864c-.902 0-1.678-.693-1.72-1.593a1.675 1.675 0 0 1 1.673-1.756h17.976a8.374 8.374 0 0 0 8.374-8.374v-7.816a8.374 8.374 0 0 0-8.374-8.374z"/></g><g><path fill="#78e0ea" d="M20.768 28.584h15.631c2.467 0 4.467-2 4.467-4.467V8.374C40.866 3.757 37.109 0 32.492 0h-7.816c-4.618 0-8.374 3.757-8.374 8.374v4.578H26.35a1.675 1.675 0 1 1 0 3.35H8.374C3.757 16.302 0 20.058 0 24.676v7.816c0 4.617 3.757 8.374 8.374 8.374h7.928V33.05c0-2.467 2-4.466 4.466-4.466z"/></g><g><path fill="#3cccdd" d="M32.492 0h-3.908v28.584h7.815c2.467 0 4.467-2 4.467-4.467V8.374C40.866 3.757 37.109 0 32.492 0z"/></g><g><path fill="#5a5a6e" d="M26.35 6.81a1.675 1.675 0 1 1-3.349.001 1.675 1.675 0 0 1 3.35 0z"/></g><g><path fill="#46465a" d="M34.166 50.356a1.675 1.675 0 1 1-3.349 0 1.675 1.675 0 0 1 3.35 0z"/></g></g></g></svg>