<svg xmlns="http://www.w3.org/2000/svg" width="26" height="25" viewBox="0 0 26 25"><g><g><g><path fill="#eab14d" d="M0 12.5C0 5.596 5.596 0 12.5 0S25 5.596 25 12.5 19.404 25 12.5 25 0 19.404 0 12.5z"/></g><g><path fill="#e49542" d="M12.705.008c-.227 0-.452.006-.676.018 6.703.345 12.03 5.8 12.03 12.478s-5.327 12.133-12.03 12.478c.224.012.45.018.676.018 7.017 0 12.705-5.595 12.705-12.496C25.41 5.603 19.722.008 12.705.008z"/></g><g><path fill="#f4fbff" d="M2.805 12.504c0-5.352 4.432-9.691 9.9-9.691s9.9 4.339 9.9 9.691-4.432 9.691-9.9 9.691-9.9-4.339-9.9-9.69z"/></g><g><path fill="#daf1f4" d="M12.705 2.813c-.274 0-.546.011-.814.033 5.087.405 9.086 4.574 9.086 9.658s-4 9.253-9.086 9.659c.268.02.54.032.814.032 5.468 0 9.9-4.339 9.9-9.69 0-5.353-4.432-9.692-9.9-9.692z"/></g><g><g><g><path fill="#2b4d66" d="M12.705 5.652a.383.383 0 0 1-.383-.384v-.562a.383.383 0 1 1 .767 0v.562a.383.383 0 0 1-.384.384z"/></g></g><g><g><path fill="#2b4d66" d="M17.801 7.78a.383.383 0 0 1-.27-.655l.397-.398a.383.383 0 1 1 .542.543l-.398.398a.383.383 0 0 1-.27.112z"/></g></g><g><g><path fill="#2b4d66" d="M20.463 12.889H19.9a.383.383 0 1 1 0-.767h.563a.383.383 0 1 1 0 .767z"/></g></g><g><g><path fill="#2b4d66" d="M18.17 18.383a.382.382 0 0 1-.271-.113l-.398-.397a.384.384 0 0 1 .542-.543l.398.398a.384.384 0 0 1-.271.655z"/></g></g><g><g><path fill="#2b4d66" d="M12.663 20.646a.383.383 0 0 1-.383-.383V19.7a.383.383 0 1 1 .767 0v.563a.383.383 0 0 1-.384.383z"/></g></g><g><g><path fill="#2b4d66" d="M7.169 18.353a.383.383 0 0 1-.271-.655l.398-.397a.384.384 0 0 1 .542.542l-.398.398a.382.382 0 0 1-.271.112z"/></g></g><g><g><path fill="#2b4d66" d="M5.468 12.847h-.563a.383.383 0 0 1 0-.767h.563a.383.383 0 1 1 0 .767z"/></g></g><g><g><path fill="#2b4d66" d="M7.597 7.75a.382.382 0 0 1-.272-.112l-.398-.398a.383.383 0 0 1 .543-.542l.398.398a.384.384 0 0 1-.271.654z"/></g></g></g><g><g><path fill="#2b4d66" d="M12.705 12.944H9.448a.383.383 0 0 1 0-.767h2.874V7.3a.383.383 0 1 1 .766 0v5.262a.383.383 0 0 1-.383.383z"/></g></g><g><g><path fill="#da4a54" d="M16.639 14.892a.382.382 0 0 1-.175-.043l-3.934-2.023a.383.383 0 1 1 .35-.682l3.935 2.023a.383.383 0 0 1-.176.725z"/></g></g><g><path fill="#365e7d" d="M11.682 12.504a1.023 1.023 0 1 1 2.047 0 1.023 1.023 0 0 1-2.047 0z"/></g></g></g></svg>