<svg xmlns="http://www.w3.org/2000/svg" width="20" height="20" viewBox="0 0 20 20"><g><g><g><path fill="#fff" d="M9.71 18.586c-4.884 0-8.857-3.974-8.857-8.857C.853 4.845 4.826.87 9.71.87c4.883 0 8.856 3.974 8.856 8.858 0 4.883-3.973 8.857-8.856 8.857zm0-18.5C4.392.085.067 4.41.067 9.727c0 5.318 4.325 9.644 9.643 9.644 5.317 0 9.643-4.326 9.643-9.644 0-5.317-4.326-9.643-9.643-9.643z"/></g><g><path fill="#fff" d="M14.69 5.883L7.833 12.74 4.73 9.636a.393.393 0 0 0-.556.556l3.382 3.382a.392.392 0 0 0 .556 0l7.135-7.135a.393.393 0 1 0-.556-.556z"/></g></g></g></svg>