<svg xmlns="http://www.w3.org/2000/svg" width="19" height="18" viewBox="0 0 19 18"><g><g><g><path fill="#48526b" d="M9.888 16.572v-.48a1.23 1.23 0 0 0 .618-1.065v-.554c0-.652-.476-1.239-1.126-1.295a1.236 1.236 0 0 0-1.346 1.23v.619c0 .456.25.85.618 1.064v.48l-1.272.364c-.527.15-.891.633-.891 1.182h5.562c0-.549-.364-1.031-.892-1.182z"/></g><g><path fill="#48526b" d="M16.377 16.572v-.48a1.23 1.23 0 0 0 .618-1.065v-.554c0-.652-.476-1.239-1.126-1.295a1.236 1.236 0 0 0-1.346 1.23v.619c0 .456.25.85.618 1.064v.48l-1.272.364c-.528.15-.891.633-.891 1.182h5.562c0-.549-.364-1.031-.892-1.182z"/></g><g><path fill="#48526b" d="M3.399 16.572v-.48a1.23 1.23 0 0 0 .618-1.065v-.554c0-.652-.476-1.239-1.125-1.295a1.236 1.236 0 0 0-1.347 1.23v.619c0 .456.25.85.618 1.064v.48l-1.272.364c-.527.15-.891.633-.891 1.182h5.562c0-.549-.364-1.031-.891-1.182z"/></g><g><path fill="#48526b" d="M12.36 3.906L10 5.254a1.472 1.472 0 0 1-1.46 0L6.18 3.906v1.993c.352.215 1.441.785 3.09.785 1.648 0 2.737-.57 3.09-.785z"/></g><g><path fill="#48526b" d="M15.14 7.92a.619.619 0 0 0 .618-.58l-.541-1.892h-.152l-.54 1.893c.02.323.288.579.616.579z"/></g><g><path fill="#48526b" d="M8.343 7.729l2.854 1.427-2.854 1.427zm.927 3.899a2.475 2.475 0 0 0 2.472-2.472c0-.795-.381-1.53-1.02-1.995-.426.085-.91.14-1.452.14a7.441 7.441 0 0 1-1.453-.14 2.464 2.464 0 0 0-1.02 1.995 2.475 2.475 0 0 0 2.473 2.472z"/></g><g><path fill="#48526b" d="M8.96 8.729v.854l.855-.427z"/></g><g><path fill="#48526b" d="M16.995 9.774h-4.017v-.618h4.017zm0 1.236h-4.017v-.618h4.017zm0 1.236h-4.017v-.618h4.017zM4.944 5.139H1.545V4.52h3.399zm0 1.236H1.545v-.618h3.399zm0 1.236H1.545v-.618h3.399zM1.545 3.285h2.163v.618H1.545zm16.686-1.236v-.927h-5.326l.885.505a.834.834 0 0 1 .357.422h.376c.51 0 .927.416.927.927V4.83h.233l.694 2.472a1.237 1.237 0 0 1-2.472 0l.012-.085.682-2.387h.233V2.976a.31.31 0 0 0-.31-.31h-.375a.836.836 0 0 1-.357.422l-.812.465V6.22l-.124.093c-.032.024-.523.383-1.403.662.575.573.909 1.35.909 2.18a3.093 3.093 0 0 1-3.09 3.09 3.093 3.093 0 0 1-3.09-3.09c0-.83.334-1.607.908-2.18-.879-.279-1.37-.637-1.403-.662l-.123-.093V3.553l-.812-.465a.843.843 0 0 1 0-1.46l.884-.506H.31v.927h3.395v.618H.927v10.197h16.686V2.667h-1.545v-.618z"/></g><g><path fill="#48526b" d="M4.944 2.358c0 .08.043.154.112.194l3.79 2.165c.258.148.59.148.848 0l3.588-2.05H9.27v-.618h4.012L9.694-.001a.858.858 0 0 0-.848 0l-3.79 2.165a.225.225 0 0 0-.112.194z"/></g></g></g></svg>