<svg xmlns="http://www.w3.org/2000/svg" width="76" height="61" viewBox="0 0 76 61"><g><g><g><path fill="#f5f5f5" d="M75.057 14.299v40.473a6.041 6.041 0 0 1-6.04 6.04H6.04A6.041 6.041 0 0 1 0 54.773V14.3z"/></g><g><path fill="#e6e6e6" d="M75.057 17.32v-3.021l-37.528-1.51L0 14.298V54.772a6.041 6.041 0 0 0 6.04 6.041h3.021a6.041 6.041 0 0 1-6.04-6.04V17.318z"/></g><g><path fill="#50758d" d="M75.057 6.748v7.55H0v-7.55A6.041 6.041 0 0 1 6.04.707h62.976a6.041 6.041 0 0 1 6.041 6.04z"/></g><g><g><path fill="#2b597f" d="M71.66 7.503a3.402 3.402 0 0 0-3.399-3.398H36.094c-.964 0-1.835.404-2.454 1.051-.72.719-.382.38-1.1 1.1a3.387 3.387 0 0 0-1.052 2.455 3.402 3.402 0 0 0 3.398 3.398h32.167c.964 0 1.835-.404 2.454-1.052.72-.718.382-.38 1.1-1.1a3.387 3.387 0 0 0 1.052-2.454z"/></g><g><path fill="#2b597f" d="M10.307 7.465A3.402 3.402 0 0 0 6.91 4.067c-.964 0-1.835.404-2.454 1.052-.72.718-.382.38-1.1 1.1a3.387 3.387 0 0 0-1.052 2.454 3.402 3.402 0 0 0 3.398 3.398c.964 0 1.835-.404 2.454-1.051.72-.719.382-.38 1.1-1.1a3.387 3.387 0 0 0 1.052-2.455z"/></g><g><path fill="#2b597f" d="M20.01 7.465a3.402 3.402 0 0 0-3.398-3.398c-.964 0-1.835.404-2.454 1.052-.72.718-.382.38-1.1 1.1a3.387 3.387 0 0 0-1.052 2.454 3.402 3.402 0 0 0 3.398 3.398c.964 0 1.835-.404 2.454-1.051.72-.719.382-.38 1.1-1.1a3.387 3.387 0 0 0 1.052-2.455z"/></g><g><path fill="#2b597f" d="M29.676 7.465a3.402 3.402 0 0 0-3.398-3.398c-.965 0-1.836.404-2.455 1.052-.72.718-.382.38-1.1 1.1a3.387 3.387 0 0 0-1.052 2.454 3.402 3.402 0 0 0 3.398 3.398c.965 0 1.836-.404 2.455-1.051.72-.719.382-.38 1.1-1.1a3.387 3.387 0 0 0 1.052-2.455z"/></g></g><g><path fill="#fd646f" d="M6.91 10.863A3.402 3.402 0 0 1 3.51 7.465 3.402 3.402 0 0 1 6.91 4.067a3.402 3.402 0 0 1 3.398 3.398 3.402 3.402 0 0 1-3.398 3.398z"/></g><g><path fill="#ffc682" d="M16.612 10.9a3.402 3.402 0 0 1-3.398-3.397 3.402 3.402 0 0 1 3.398-3.398 3.402 3.402 0 0 1 3.398 3.398 3.402 3.402 0 0 1-3.398 3.398z"/></g><g><path fill="#93ddb7" d="M26.278 10.9a3.402 3.402 0 0 1-3.398-3.397 3.402 3.402 0 0 1 3.398-3.398 3.402 3.402 0 0 1 3.398 3.398 3.402 3.402 0 0 1-3.398 3.398z"/></g><g><path fill="#f5f5f5" d="M68.261 10.9H36.094a3.402 3.402 0 0 1-3.398-3.397 3.402 3.402 0 0 1 3.398-3.398H68.26a3.402 3.402 0 0 1 3.398 3.398 3.402 3.402 0 0 1-3.398 3.398z"/></g><g><g><path fill="#50758d" d="M32.726 50.907a2.372 2.372 0 0 1-2.172-3.322l9.603-21.986a2.372 2.372 0 0 1 4.347 1.899L34.9 49.484a2.372 2.372 0 0 1-2.174 1.423z"/></g><g><path fill="#50758d" d="M23.24 50.052a2.364 2.364 0 0 1-1.678-.695l-8.893-8.894a2.372 2.372 0 0 1 0-3.354l8.775-8.775a2.372 2.372 0 0 1 3.354 3.354L17.7 38.786l7.217 7.217a2.372 2.372 0 0 1-1.678 4.049z"/></g><g><path fill="#50758d" d="M51.818 50.052c.607 0 1.214-.232 1.677-.695l8.894-8.894a2.372 2.372 0 0 0 0-3.354l-8.776-8.775a2.372 2.372 0 0 0-3.354 3.354l7.098 7.098-7.217 7.217a2.372 2.372 0 0 0 1.678 4.049z"/></g></g></g></g></svg>