<svg xmlns="http://www.w3.org/2000/svg" width="34" height="33" viewBox="0 0 34 33"><g><g><g><path fill="#563d7c" d="M.441 28.745A4.255 4.255 0 0 0 4.696 33h24.49a4.255 4.255 0 0 0 4.255-4.255V4.255A4.255 4.255 0 0 0 29.186 0H4.696A4.255 4.255 0 0 0 .442 4.255v24.49z"/></g><g><path fill="#fff" d="M18.827 23.076c.43 0 .84-.042 1.231-.126a3.022 3.022 0 0 0 1.036-.42c.298-.195.536-.461.713-.797.178-.336.266-.765.266-1.287 0-1.026-.289-1.759-.867-2.197-.579-.439-1.344-.658-2.295-.658h-4.785v5.485zm.308-16.566c.951 0 1.819.084 2.602.252.784.167 1.456.443 2.015.825.56.383.994.891 1.301 1.525.308.635.462 1.418.462 2.35 0 1.008-.228 1.848-.685 2.52-.457.671-1.134 1.221-2.03 1.65 1.232.355 2.15.975 2.757 1.861.606.887.91 1.955.91 3.205 0 1.007-.196 1.88-.588 2.616a5.1 5.1 0 0 1-1.581 1.805 6.998 6.998 0 0 1-2.267 1.035c-.849.224-1.72.336-2.616.336H9.732V6.51zm-.56 8.087c.784 0 1.427-.186 1.931-.56.504-.373.756-.98.756-1.819 0-.466-.084-.848-.252-1.147a1.865 1.865 0 0 0-.672-.7 2.829 2.829 0 0 0-.965-.35 6.398 6.398 0 0 0-1.134-.097h-4.113v4.673z"/></g></g></g></svg>