<svg xmlns="http://www.w3.org/2000/svg" width="48" height="43" viewBox="0 0 48 43"><g><g><path fill="#bcfbff" d="M0 15.343c0 .33.116.658.34.918l22.594 26.25a1.407 1.407 0 0 0 2.132 0l22.594-26.25c.224-.26.34-.587.34-.918a3.158 3.158 0 0 0-2.628-1.406H2.628A3.158 3.158 0 0 0 0 15.343z"/></g><g><path fill="#45f6ff" d="M45.372 13.937H24V43c.41 0 .799-.179 1.066-.489l22.594-26.25c.224-.26.34-.587.34-.918a3.158 3.158 0 0 0-2.628-1.406z"/></g><g><path fill="#45f6ff" d="M47.883 14.781L42.165 1.656a1.406 1.406 0 0 0-1.29-.844H7.125c-.56 0-1.066.331-1.29.844L.117 14.781c-.079.181-.117.372-.117.562h48c0-.19-.038-.38-.117-.562z"/></g><g><path fill="#2ebeef" d="M47.883 14.781L42.165 1.656a1.406 1.406 0 0 0-1.29-.844H24v14.531h24c0-.19-.038-.38-.117-.562z"/></g><g><path fill="#2ebeef" d="M7.125.812c-.276 0-.538.08-.76.223l9.197 14.308L24 .812z"/></g><g><path fill="#0d8ebc" d="M41.636 1.035a1.405 1.405 0 0 0-.76-.223H24l8.438 14.531z"/></g><g><path fill="#2ebeef" d="M24 43l8.469-27.657H15.53z"/></g><g><path fill="#0d8ebc" d="M24 15.343V43l8.469-27.657z"/></g></g></svg>