<svg xmlns="http://www.w3.org/2000/svg" width="38" height="32" viewBox="0 0 38 32"><g><g><g><path fill="none" stroke="#d6d6d6" stroke-linecap="round" stroke-linejoin="round" stroke-miterlimit="20" d="M36.62 27.447a3.28 3.28 0 0 1-3.28 3.28H3.816a3.28 3.28 0 0 1-3.28-3.28V9.404a3.28 3.28 0 0 1 3.28-3.28h6.56v0l3.281-4.92v0h9.841v0l3.281 4.92v0h6.56a3.28 3.28 0 0 1 3.281 3.28z"/></g><g><path fill="none" stroke="#d6d6d6" stroke-linecap="round" stroke-linejoin="round" stroke-miterlimit="20" d="M25.139 17.606a6.561 6.561 0 1 1-13.122 0 6.561 6.561 0 0 1 13.122 0z"/></g></g></g></svg>