<svg xmlns="http://www.w3.org/2000/svg" width="28" height="28" viewBox="0 0 28 28"><g><g><g><path fill="#3ccc00" d="M11.5 26.138c0 .147-.119.266-.266.266H10.17a.266.266 0 0 1-.266-.266V21.88c0-.147.119-.266.266-.266h1.064c.147 0 .266.12.266.266zm-.266-6.12H10.17a1.865 1.865 0 0 0-1.863 1.862v4.258c0 1.027.835 1.863 1.863 1.863h1.064a1.865 1.865 0 0 0 1.863-1.863V21.88a1.865 1.865 0 0 0-1.863-1.863z"/></g><g><path fill="#3ccc00" d="M4.847 26.404H4.05v-5.588a.798.798 0 0 0-.798-.799H1.654a.798.798 0 1 0 0 1.597h.798v4.79h-.798a.798.798 0 1 0 0 1.597h3.193a.798.798 0 1 0 0-1.597z"/></g><g><path fill="#3ccc00" d="M26.403 26.138c0 .147-.119.266-.266.266h-1.064a.266.266 0 0 1-.266-.266V21.88c0-.147.119-.266.266-.266h1.064c.147 0 .266.12.266.266zm-.266-6.12h-1.064a1.865 1.865 0 0 0-1.863 1.862v4.258c0 1.027.835 1.863 1.863 1.863h1.064A1.865 1.865 0 0 0 28 26.138V21.88a1.865 1.865 0 0 0-1.863-1.863z"/></g><g><path fill="#3ccc00" d="M19.75 26.404h-.798v-5.588a.798.798 0 0 0-.799-.799h-1.596a.798.798 0 1 0 0 1.597h.798v4.79h-.798a.798.798 0 1 0 0 1.597h3.193a.798.798 0 1 0 0-1.597z"/></g><g><path fill="#3ccc00" d="M11.5 16.504c0 .147-.119.267-.266.267H10.17a.266.266 0 0 1-.266-.267v-4.258c0-.146.119-.266.266-.266h1.064c.147 0 .266.12.266.267zm-.266-6.12H10.17a1.865 1.865 0 0 0-1.863 1.862v4.258c0 1.028.835 1.863 1.863 1.863h1.064a1.865 1.865 0 0 0 1.863-1.863v-4.258a1.865 1.865 0 0 0-1.863-1.862z"/></g><g><path fill="#3ccc00" d="M4.847 16.77H4.05v-5.588a.798.798 0 0 0-.798-.798H1.654a.798.798 0 1 0 0 1.596h.798v4.79h-.798a.798.798 0 1 0 0 1.597h3.193a.798.798 0 1 0 0-1.596z"/></g><g><path fill="#3ccc00" d="M18.952 16.504c0 .147-.12.267-.266.267H17.62a.266.266 0 0 1-.266-.267v-4.258c0-.146.12-.266.266-.266h1.065c.147 0 .266.12.266.267zm-.266-6.12H17.62a1.865 1.865 0 0 0-1.863 1.862v4.258c0 1.028.836 1.863 1.863 1.863h1.065a1.865 1.865 0 0 0 1.863-1.863v-4.258a1.865 1.865 0 0 0-1.863-1.862z"/></g><g><path fill="#3ccc00" d="M27.202 16.77h-.799v-5.588a.798.798 0 0 0-.798-.798h-1.597a.798.798 0 1 0 0 1.596h.799v4.79h-.799a.798.798 0 1 0 0 1.597h3.194a.798.798 0 1 0 0-1.596z"/></g><g><path fill="#3ccc00" d="M4.049 6.87c0 .148-.12.267-.266.267H2.718a.266.266 0 0 1-.266-.266V2.613c0-.147.12-.266.266-.266h1.065c.147 0 .266.12.266.266zM3.783.75H2.718A1.865 1.865 0 0 0 .855 2.613V6.87c0 1.027.836 1.863 1.863 1.863h1.065A1.865 1.865 0 0 0 5.646 6.87V2.613A1.865 1.865 0 0 0 3.783.75z"/></g><g><path fill="#3ccc00" d="M12.299 7.137H11.5V1.548a.798.798 0 0 0-.798-.798H9.105a.798.798 0 1 0 0 1.597h.799v4.79h-.799a.798.798 0 1 0 0 1.597H12.3a.798.798 0 1 0 0-1.597z"/></g><g><path fill="#3ccc00" d="M26.403 6.87c0 .148-.119.267-.266.267h-1.064a.266.266 0 0 1-.266-.266V2.613c0-.147.119-.266.266-.266h1.064c.147 0 .266.12.266.266zM26.137.75h-1.064a1.865 1.865 0 0 0-1.863 1.863V6.87c0 1.027.835 1.863 1.863 1.863h1.064A1.865 1.865 0 0 0 28 6.87V2.613A1.865 1.865 0 0 0 26.137.75z"/></g><g><path fill="#3ccc00" d="M19.75 7.137h-.798V1.548a.798.798 0 0 0-.799-.798h-1.596a.798.798 0 1 0 0 1.597h.798v4.79h-.798a.798.798 0 1 0 0 1.597h3.193a.798.798 0 1 0 0-1.597z"/></g></g></g></svg>