<svg xmlns="http://www.w3.org/2000/svg" width="28" height="28" viewBox="0 0 28 28"><g><g><g><path fill="#00c9e9" d="M25.753 25.287c0 .442-.36.802-.802.802h-9.755l2.417-5.333a.807.807 0 0 0 .031-.584L13.732 8.404h11.22c.441 0 .8.36.8.801zm-10.113-4.06l-1.57 3.464-1.146-3.464zM2.404 19.624a.802.802 0 0 1-.801-.802V2.74c0-.442.36-.801.801-.801h7.49l5.879 17.685H2.404zM24.951 6.8H13.2L11.233.885a.801.801 0 0 0-.76-.55H2.403A2.407 2.407 0 0 0 0 2.74v16.082a2.407 2.407 0 0 0 2.404 2.405h8.832l1.95 5.9a.805.805 0 0 0 .766.565h10.999a2.407 2.407 0 0 0 2.405-2.405V9.205a2.407 2.407 0 0 0-2.405-2.404z"/></g><g><path fill="#00c9e9" d="M10.472 10.007H8.068a.801.801 0 0 0 0 1.602h1.465a2.408 2.408 0 0 1-2.267 1.603 2.407 2.407 0 0 1-2.404-2.404 2.407 2.407 0 0 1 2.404-2.404c.643 0 1.246.25 1.7.704A.801.801 0 1 0 10.1 7.974a3.98 3.98 0 0 0-2.834-1.173 4.012 4.012 0 0 0-4.007 4.007 4.012 4.012 0 0 0 4.007 4.007 4.012 4.012 0 0 0 4.008-4.007.801.801 0 0 0-.802-.801z"/></g><g><path fill="#00c9e9" d="M23.295 13.212h-2.404v-.801a.801.801 0 0 0-1.603 0v.801h-2.404a.801.801 0 0 0 0 1.603h4.655c-.255.758-.802 1.656-1.439 2.52a17.275 17.275 0 0 1-.403-.566.801.801 0 1 0-1.326.901c.225.33.461.653.696.958-.4.464-.795.885-1.142 1.225a.801.801 0 1 0 1.123 1.144c.027-.027.465-.457 1.048-1.118.57.651.996 1.08 1.03 1.113a.801.801 0 0 0 1.133-1.133c-.008-.009-.499-.502-1.125-1.232 1.134-1.467 1.826-2.744 2.066-3.812h.095a.801.801 0 0 0 0-1.603z"/></g></g></g></svg>