<svg xmlns="http://www.w3.org/2000/svg" width="26" height="31" viewBox="0 0 26 31"><g><g><path fill="#4f56f5" d="M4.899 30.356c2.465 0 3.774-2.202 4.159-3.502l.017-.063c.897-3.714 2.325-9.601 3.384-13.884h3.786a1.29 1.29 0 1 0 0-2.578H13.1c.34-1.35.587-2.31.685-2.638l.108-.367c.4-1.364 1.336-4.56 2.783-4.56 1.342 0 1.542 2.068 1.551 2.168a1.283 1.283 0 0 0 1.384 1.18 1.289 1.289 0 0 0 1.187-1.384c-.12-1.571-1.138-4.542-4.122-4.542-3.38 0-4.648 4.33-5.257 6.412l-.104.352c-.124.412-.449 1.681-.873 3.379h-4.51a1.29 1.29 0 1 0 0 2.578h3.872A3353.104 3353.104 0 0 0 6.58 26.138c-.07.205-.6 1.64-1.68 1.64-1.652 0-2.367-2.318-2.372-2.336a1.29 1.29 0 0 0-2.477.717c.45 1.56 1.979 4.197 4.848 4.197z"/></g><g><path fill="#4f56f5" d="M24.02 27.031c.76 0 1.398-.54 1.398-1.398 0-.4-.16-.76-.5-1.16l-2.677-3.076 2.598-3.037c.24-.3.42-.62.42-1.04 0-.76-.62-1.318-1.42-1.318-.54 0-.958.34-1.319.78l-2.017 2.636-1.978-2.637c-.4-.499-.82-.78-1.419-.78-.76 0-1.398.54-1.398 1.4 0 .399.16.759.499 1.158l2.497 2.877-2.737 3.237c-.26.3-.42.62-.42 1.04 0 .76.62 1.318 1.419 1.318.54 0 .959-.34 1.318-.78l2.158-2.836L22.6 26.25c.4.5.82.78 1.42.78z"/></g></g></svg>