<svg xmlns="http://www.w3.org/2000/svg" width="28" height="28" viewBox="0 0 28 28"><g><g><g><g><g><path fill="#892dda" d="M20.987 26.994l-6.56-24.487L19.674 1.1l6.56 24.488zm-8.352-.272H7.203V1.372h5.432zm-6.338 0H.865V1.372h5.432zm20.93-.93v-.002L20.43.43a.453.453 0 0 0-.553-.32l-6.123 1.64a.442.442 0 0 0-.215.142V.919a.453.453 0 0 0-.452-.453H.412A.453.453 0 0 0-.04.92v26.256c0 .25.203.453.453.453h12.676c.25 0 .452-.203.452-.453V2.697l6.69 24.968a.453.453 0 0 0 .553.32l6.122-1.64a.453.453 0 0 0 .322-.554z"/></g></g></g><g><g><g><path fill="#892dda" d="M4.94 3.183H2.222a.453.453 0 0 0 0 .905h2.716a.453.453 0 0 0 0-.905z"/></g></g></g><g><g><g><path fill="#892dda" d="M4.94 4.993H2.222a.453.453 0 0 0 0 .906h2.716a.453.453 0 0 0 0-.906z"/></g></g></g><g><g><g><path fill="#892dda" d="M11.277 3.183H8.56a.453.453 0 0 0 0 .905h2.716a.453.453 0 0 0 0-.905z"/></g></g></g><g><g><g><path fill="#892dda" d="M11.277 4.993H8.56a.453.453 0 0 0 0 .906h2.716a.453.453 0 0 0 0-.906z"/></g></g></g><g><g><g><path fill="#892dda" d="M19.398 3.53a.453.453 0 0 0-.57-.328l-2.625.702a.453.453 0 0 0 .23.876l.004-.001 2.626-.703a.453.453 0 0 0 .335-.546z"/></g></g></g><g><g><g><path fill="#892dda" d="M19.855 5.27a.453.453 0 0 0-.554-.32h-.002l-2.623.703a.453.453 0 0 0 .23.876l.004-.001 2.625-.703a.453.453 0 0 0 .32-.555z"/></g></g></g><g><g><g><path fill="#892dda" d="M24.303 21.885a.453.453 0 0 0-.551-.319l-2.626.703a.453.453 0 0 0 .117.89h.002c.04 0 .079-.005.117-.015l2.624-.703a.453.453 0 0 0 .317-.556z"/></g></g></g><g><g><g><path fill="#892dda" d="M24.776 23.634a.453.453 0 0 0-.552-.318l-2.626.703a.453.453 0 1 0 .235.874l2.625-.703a.453.453 0 0 0 .318-.556z"/></g></g></g><g><g><g><path fill="#892dda" d="M11.277 22.196H8.56a.453.453 0 0 0 0 .905h2.716a.453.453 0 0 0 0-.905z"/></g></g></g><g><g><g><path fill="#892dda" d="M11.277 24.006H8.56a.453.453 0 0 0 0 .906h2.716a.453.453 0 0 0 0-.906z"/></g></g></g><g><g><g><path fill="#892dda" d="M4.94 22.196H2.222a.453.453 0 0 0 0 .905h2.716a.453.453 0 0 0 0-.905z"/></g></g></g><g><g><g><path fill="#892dda" d="M4.94 24.006H2.222a.453.453 0 0 0 0 .906h2.716a.453.453 0 0 0 0-.906z"/></g></g></g></g></g></svg>