<svg xmlns="http://www.w3.org/2000/svg" width="32" height="32" viewBox="0 0 32 32"><g><g><g><path fill="#028de9" d="M29.593 29.418a.664.664 0 0 1-.664.663h-.39v-2.173h.39c.366 0 .664.298.664.664zm-1.98 1.225a.32.32 0 0 1-.318.32h-.417a.32.32 0 0 1-.319-.32v-3.297a.32.32 0 0 1 .319-.319h.417a.32.32 0 0 1 .318.319zm-22.322.32h-.417a.32.32 0 0 1-.319-.32v-3.297a.32.32 0 0 1 .319-.319h.417a.32.32 0 0 1 .318.319v3.297a.32.32 0 0 1-.318.32zm-2.716-2.391c0-.366.298-.664.664-.664h.39v2.173h-.39a.664.664 0 0 1-.664-.663zM5.61 4.847a.32.32 0 0 1-.318.319h-.417a.32.32 0 0 1-.319-.319V1.55a.32.32 0 0 1 .319-.318h.417a.32.32 0 0 1 .318.318zM2.575 3.621v-.846c0-.366.298-.663.664-.663h.39v2.173h-.39a.664.664 0 0 1-.664-.664zm24.303-2.39h.417a.32.32 0 0 1 .318.318v3.298a.32.32 0 0 1-.318.319h-.417a.32.32 0 0 1-.319-.319V1.55a.32.32 0 0 1 .319-.318zm2.715 1.544v.846a.664.664 0 0 1-.664.664h-.39V2.112h.39c.366 0 .664.297.664.663zm.924 25.757a1.59 1.59 0 0 0-1.588-1.55h-.445a1.246 1.246 0 0 0-1.19-.88h-.416c-.263 0-.507.082-.708.222v-4.107c0-.033.006-.066.017-.097l.324-.863a.463.463 0 0 0 .03-.163v-3.919a.734.734 0 0 0-.217-.522l-.422-.422.424-.424c.195-.195.303-.455.303-.731v-2.117a.463.463 0 1 0-.925 0v2.117c0 .029-.012.056-.032.077l-.476.476a.852.852 0 0 0 0 1.204l.419.42v2.51h-5.042a.463.463 0 1 0 0 .926h5.042v.322l-.294.783c-.05.136-.077.278-.077.423v4.368H10.201a.463.463 0 0 0 0 .925h15.433v2.97h-19.1v-2.97H8.23a.463.463 0 0 0 0-.925H6.848v-4.428l.31-.31a.75.75 0 0 0 .221-.535.75.75 0 0 0-.221-.534l-.396-.396a.013.013 0 0 1-.004-.009v-1.3l.844-.843c.254-.254.393-.591.393-.95v-1.745c0-.36-.14-.697-.393-.95l-.597-.598v-1.354h2.21a.463.463 0 0 0 0-.925h-2.21v-.69l.283-.282a.89.89 0 0 0 0-1.258l-.125-.125V5.608H25.13v3.429c0 .122.05.24.136.327l.405.405c.02.02.032.048.032.077v1.141a.463.463 0 1 0 .925 0v-1.14c0-.277-.107-.537-.303-.732l-.27-.27V5.78c.22.194.507.312.822.312h.417c.56 0 1.034-.372 1.19-.88h.444a1.59 1.59 0 0 0 1.588-1.55h.908a.463.463 0 1 0 0-.925h-.908a1.59 1.59 0 0 0-1.588-1.55h-.445a1.246 1.246 0 0 0-1.19-.88h-.416c-.4 0-.754.19-.982.482H24.46a.463.463 0 1 0 0 .926h1.173v2.969h-19.1v-2.97H22.49a.463.463 0 1 0 0-.925H6.272a1.241 1.241 0 0 0-.981-.483h-.417c-.56 0-1.034.372-1.19.881H3.24a1.59 1.59 0 0 0-1.588 1.55H.744a.463.463 0 0 0 0 .925h.907A1.59 1.59 0 0 0 3.24 5.21h.445c.156.509.63.88 1.19.88h.416c.38 0 .72-.17.947-.439v3.892c0 .123.05.24.136.327l.235.236-.393.393a.462.462 0 0 0-.135.327v3.16c0 .248.096.48.271.656l.596.596c.08.079.123.184.123.296v1.745a.416.416 0 0 1-.123.296l-.863.863a.854.854 0 0 0-.252.608v1.326c0 .25.098.486.275.663l.276.276-.325.326a.462.462 0 0 0-.136.327v4.311a1.235 1.235 0 0 0-.631-.174h-.417c-.56 0-1.034.371-1.19.88H3.24a1.59 1.59 0 0 0-1.588 1.55H.744a.463.463 0 0 0 0 .925h.907a1.59 1.59 0 0 0 1.588 1.55h.445c.156.509.63.88 1.19.88h.416c.4 0 .755-.19.982-.483h19.624c.228.294.583.483.982.483h.417c.56 0 1.034-.371 1.19-.88h.444a1.59 1.59 0 0 0 1.588-1.55h.846a.463.463 0 1 0 0-.925z"/></g><g><path fill="#028de9" d="M11.629 12.633a.463.463 0 0 0 0-.925h-.407a.463.463 0 0 0 0 .925z"/></g><g><path fill="#028de9" d="M16.943 15.634a.463.463 0 1 0 0 .925h3.38a.463.463 0 1 0 0-.925z"/></g><g><path fill="#028de9" d="M11.425 19.938h.695a.463.463 0 0 0 0-.925h-.695a.463.463 0 0 0 0 .925z"/></g></g></g></svg>