<svg xmlns="http://www.w3.org/2000/svg" width="30" height="32" viewBox="0 0 30 32"><g><g><g><path fill="#f80" d="M4.683 30.035c-2.215 0-3.555-2.44-2.366-4.31l3.1-4.872a8.383 8.383 0 0 0 6.467-1.217l2.922-1.948a6.524 6.524 0 0 1 7.084-.112l5.186 8.15c1.19 1.868-.15 4.309-2.366 4.309zm7.063-19.127a.935.935 0 0 0 .146-.502V5.608a.935.935 0 0 0 0-1.87h-1.869a.936.936 0 0 1 0-1.869h9.347a.936.936 0 0 1 0 1.87H17.5a.935.935 0 0 0 0 1.87v4.797c0 .178.051.352.147.502l2.541 3.994a8.39 8.39 0 0 0-6.419 1.23l-2.92 1.948a6.513 6.513 0 0 1-4.342 1.061zm16.907 13.814L19.37 10.134V5.608a2.807 2.807 0 0 0 2.804-2.804A2.807 2.807 0 0 0 19.37 0h-9.347a2.807 2.807 0 0 0-2.804 2.804 2.807 2.807 0 0 0 2.804 2.804v4.526L.74 24.722c-1.982 3.115.251 7.182 3.943 7.182H24.71c3.692 0 5.925-4.068 3.943-7.182z"/></g><g><path fill="#f80" d="M9.088 26.296a.936.936 0 0 1 0-1.87.936.936 0 0 1 0 1.87zm0-3.739a2.807 2.807 0 0 0-2.804 2.805 2.807 2.807 0 0 0 2.804 2.804 2.807 2.807 0 0 0 2.804-2.804 2.807 2.807 0 0 0-2.804-2.805z"/></g><g><path fill="#f80" d="M18.435 22.557a.936.936 0 0 1 0-1.869.936.936 0 0 1 0 1.87zm0-3.738a2.807 2.807 0 0 0-2.804 2.804 2.807 2.807 0 0 0 2.804 2.804 2.807 2.807 0 0 0 2.804-2.804 2.807 2.807 0 0 0-2.804-2.804z"/></g><g><path fill="#f80" d="M13.762 25.361a.935.935 0 1 1 1.87 0 .935.935 0 0 1-1.87 0z"/></g><g><path fill="#f80" d="M21.24 25.361a.935.935 0 1 1 1.869 0 .935.935 0 0 1-1.87 0z"/></g><g><path fill="#f80" d="M17.5 27.23a.935.935 0 1 1 1.87 0 .935.935 0 0 1-1.87 0z"/></g></g></g></svg>