<svg xmlns="http://www.w3.org/2000/svg" width="32" height="32" viewBox="0 0 32 32"><g><g><path fill="#ff0068" d="M22.786 9.188c-.411-1.942-.56-3.447-.172-4.705L27.49 9.36c-1.258.387-2.763.24-4.705-.172zm-1.75 11.652c-2.491 2.49-5.638 2.132-8.677 1.473a44.013 44.013 0 0 0-.26-1.202c3.059.696 5.923 1.162 8.147-1.061 4.897-4.897-3.413-13.394 2.067-18.873a.56.56 0 0 1 .79.79c-4.925 4.925 3.442 13.364-2.067 18.873zm-.733-9.169zm.652 4.239l-4.89-4.891c1.287-.014 2.711.299 4.238.652.353 1.527.666 2.95.652 4.239zm-1.052 3.141l-6.98-6.98a4.424 4.424 0 0 1 1.952-.93l5.958 5.958a4.426 4.426 0 0 1-.93 1.952zm-2.608 1.586l-5.958-5.958a4.426 4.426 0 0 1 .93-1.952l6.98 6.98a4.42 4.42 0 0 1-1.952.93zm-5.428-.53zm-.652-4.239l4.89 4.891c-1.288.014-2.711-.299-4.238-.652-.353-1.527-.666-2.95-.652-4.239zm-6.536 6.55c1.258-.387 2.762-.24 4.705.172.411 1.942.559 3.447.172 4.705zm-2.516.488a.558.558 0 1 1-.79-.79c1.501-1.501 3.262-1.953 5.012-1.953.847 0 1.692.106 2.504.25.088.389.178.772.273 1.184-2.571-.518-5.02-.67-6.999 1.31zm27.188-14.69a4.75 4.75 0 0 1-.95.744l-5.387-5.388c.195-.331.441-.646.744-.95.58-.579.58-1.521 0-2.1a1.487 1.487 0 0 0-2.101 0c-2.412 2.41-2.447 5.326-2.025 7.957-3.063-.631-6.45-.9-9.154 1.803-1.222 1.223-1.924 2.658-2.148 4.39a.464.464 0 0 0 .92.118c.196-1.52.812-2.78 1.884-3.852 2.49-2.49 5.638-2.132 8.677-1.473.09.454.17.81.26 1.201-3.02-.686-5.945-1.172-8.15 1.065-4.93 4.937 3.447 13.36-2.064 18.87a.56.56 0 0 1-.79-.79c3.495-3.495.372-8.515.128-13.32a.464.464 0 0 0-.926.047c.05.997.22 1.996.406 2.898-2.632-.421-5.546-.386-7.958 2.025a1.485 1.485 0 1 0 2.102 2.101c.303-.303.618-.548.95-.744l5.387 5.388a4.757 4.757 0 0 1-.744.95c-.58.578-.58 1.521 0 2.1.579.58 1.521.58 2.1 0 2.412-2.41 2.447-5.326 2.025-7.957 3.497.72 6.622.729 9.154-1.804 2.704-2.703 2.435-6.09 1.803-9.154.88.14 1.763.224 2.653.197a.464.464 0 0 0-.03-.927c-.83.026-1.738-.052-2.836-.246-.089-.391-.176-.76-.273-1.184 2.571.518 5.02.67 6.999-1.31a.56.56 0 0 1 .79.79c-.868.868-1.847 1.431-2.995 1.722a.464.464 0 1 0 .228.899c1.314-.333 2.433-.976 3.422-1.965.281-.28.436-.654.436-1.05 0-1.32-1.606-1.982-2.537-1.051z"/></g></g></svg>