<svg xmlns="http://www.w3.org/2000/svg" width="32" height="32" viewBox="0 0 32 32"><g><g><g><g><g><path fill="#07c400" d="M21.54 23.39l-2.532-2.531 2.416-2.416 2.531 2.531zm-4.433 4.432a9.14 9.14 0 0 1-12.926 0 9.14 9.14 0 0 1 0-12.926l3.57-3.57 2.524 2.523-3.57 3.57a5.573 5.573 0 0 0 0 7.872c2.17 2.177 5.694 2.17 7.871 0l3.347-3.347 2.531 2.531zM11.03 8.04l2.531 2.532-2.192 2.185-2.532-2.531zm14.573 12.38l-3.632-3.608c-.3-.3-.785-.3-1.085 0l-3.5 3.5-3.894 3.886a4.03 4.03 0 0 1-5.693 0 4.03 4.03 0 0 1 0-5.694l4.116-4.116 3.278-3.278c.3-.3.3-.784 0-1.085L11.575 6.41c-.3-.3-.784-.3-1.085 0l-7.394 7.394c-4.154 4.186-4.124 10.95.07 15.104 4.162 4.124 10.88 4.124 15.042 0l3.893-3.893 3.5-3.509c.3-.3.3-.785 0-1.085z"/></g></g></g><g><g><g><path fill="#07c400" d="M18.954 2.177a.766.766 0 0 0-1.085-.023l-.023.023-2.27 2.27a.766.766 0 1 0 1.085 1.085l2.27-2.27a.766.766 0 0 0 .023-1.085z"/></g></g></g><g><g><g><path fill="#07c400" d="M20.224 8.017h-3.209a.772.772 0 0 0-.77.77c0 .423.347.77.77.77h3.209c.423 0 .769-.347.769-.77a.772.772 0 0 0-.77-.77z"/></g></g></g><g><g><g><path fill="#07c400" d="M13.045 0a.772.772 0 0 0-.77.77v3.208c0 .43.347.77.77.77.423 0 .77-.347.77-.77V.769a.772.772 0 0 0-.77-.769z"/></g></g></g><g><g><g><path fill="#07c400" d="M29.703 12.95c-.3-.3-.785-.3-1.085 0l-2.27 2.27c-.3.3-.3.792.008 1.084.3.3.785.3 1.085 0l2.262-2.27c.3-.3.3-.785 0-1.085z"/></g></g></g><g><g><g><path fill="#07c400" d="M31.05 18.481h-3.21a.772.772 0 0 0-.769.77c0 .423.347.77.77.77h3.208c.423 0 .77-.347.77-.77a.772.772 0 0 0-.77-.77z"/></g></g></g><g><g><g><path fill="#07c400" d="M23.817 10.826a.772.772 0 0 0-.77.77v3.208c0 .43.347.769.77.769.423 0 .77-.346.77-.77v-3.208a.772.772 0 0 0-.77-.77z"/></g></g></g></g></g></svg>