<svg xmlns="http://www.w3.org/2000/svg" width="25" height="29" viewBox="0 0 25 29"><g><g><path fill="#dd512a" d="M19.847 6.055l-.078.873-.057.632-.072.806c-.017.19-.033.345-.036.345H8.335a.417.417 0 0 0-.422.461l.198 2.219c.023.253.25.461.505.461h10.3c.227 0 .396.185.376.412l-.079.872-.638 7.153-.064.72c-.013.143-.224.315-.47.383l-5.384 1.493-.453.126c-.004 0-.208-.055-.453-.123l-5.39-1.496a.72.72 0 0 1-.488-.585l-.347-3.894a.417.417 0 0 1 .422-.461H8.1c.255 0 .482.207.504.461l.136 1.525a.714.714 0 0 0 .489.582l2.52.68.45.121.45-.12 2.525-.683a.715.715 0 0 0 .488-.582l.274-3.055a.417.417 0 0 0-.422-.46H5.811a.517.517 0 0 1-.504-.462l-.672-7.53-.078-.874c-.02-.226.172-.411.426-.411H19.421c.254 0 .446.185.426.411zM.424.531a.417.417 0 0 0-.422.461L2.149 25.08a.72.72 0 0 0 .488.585l9.112 2.53c.245.068.647.068.893 0l9.14-2.534a.72.72 0 0 0 .487-.585L24.42.992a.417.417 0 0 0-.422-.46z"/></g></g></svg>