<svg xmlns="http://www.w3.org/2000/svg" width="29" height="28" viewBox="0 0 29 28"><g><g><g><path fill="#f7df1e" d="M.643 0h28.122v28.122H.643z"/></g><g><path d="M17.382 23.218l2.152-1.246c.566.925 1.302 1.604 2.605 1.604 1.095 0 1.793-.547 1.793-1.302 0-.906-.717-1.227-1.925-1.756l-.66-.283c-1.908-.812-3.172-1.831-3.172-3.983 0-1.982 1.51-3.492 3.87-3.492 1.68 0 2.888.585 3.756 2.114l-2.058 1.321c-.453-.811-.943-1.132-1.699-1.132-.774 0-1.264.49-1.264 1.132 0 .793.49 1.114 1.623 1.605l.66.283c2.247.963 3.512 1.945 3.512 4.153 0 2.379-1.869 3.681-4.38 3.681-2.454 0-4.04-1.17-4.813-2.7zm-9.345.283l2.152-1.303c.415.737.793 1.36 1.699 1.36.868 0 1.416-.34 1.416-1.662v-8.985h2.642v9.023c0 2.737-1.604 3.983-3.945 3.983-2.114 0-3.341-1.095-3.964-2.416z"/></g></g></g></svg>