<svg xmlns="http://www.w3.org/2000/svg" width="9" height="12" viewBox="0 0 9 12"><g><g><path fill="#565656" d="M1.66 2.746c-.163-.424-.275-.937-.305-1.572h6.05c-.03.635-.143 1.148-.306 1.572zm4.077 5.197c.47.429 1.014.924 1.35 1.78L5.025 8.87a1.703 1.703 0 0 0-.307-.095V6.25c0 .762.496 1.214 1.02 1.693zm-1.694.832a1.704 1.704 0 0 0-.307.095l-2.064.854c.337-.857.88-1.352 1.35-1.781.525-.479 1.021-.93 1.021-1.693zm2.148-3.72C6.954 4.36 7.985 3.42 8.08 1.174h.68V.5H0v.674h.68C.776 3.42 1.807 4.36 2.569 5.055c.512.466.801.752.801 1.195 0 .443-.29.729-.8 1.195C1.805 8.14.774 9.08.68 11.326H0V12h8.76v-.674h-.681C7.985 9.08 6.954 8.14 6.191 7.445c-.511-.466-.8-.752-.8-1.195 0-.443.289-.729.8-1.195z"/></g></g></svg>