<svg xmlns="http://www.w3.org/2000/svg" width="38" height="34" viewBox="0 0 38 34"><g><g><g><path fill="#fff" d="M0 17.24c0 2.828 2.761 5.467 7.114 6.955-.87 4.376-.156 7.903 2.228 9.278 2.449 1.412 6.098.435 9.562-2.593 3.376 2.905 6.788 4.049 9.17 2.67 2.446-1.416 3.19-5.183 2.297-9.695 4.534-1.5 7.07-3.75 7.07-6.615 0-2.762-2.766-5.151-7.06-6.63.962-4.699.147-8.14-2.335-9.572-2.393-1.38-5.845-.177-9.27 2.805C15.21.678 11.794-.287 9.315 1.147c-2.39 1.384-3.073 4.975-2.2 9.432C2.907 12.046 0 14.49 0 17.24z"/></g><g><path fill="#53c1de" d="M29.471 12.078c-.353-.121-.71-.234-1.07-.337.06-.242.115-.486.165-.73.81-3.933.281-7.102-1.528-8.145-1.735-1-4.572.043-7.437 2.536-.282.246-.558.5-.828.76-.18-.173-.364-.343-.55-.509-3.003-2.666-6.013-3.79-7.82-2.743-1.733 1.003-2.247 3.982-1.517 7.71.072.368.154.735.246 1.1-.426.121-.838.25-1.231.387-3.52 1.228-5.769 3.151-5.769 5.147 0 2.06 2.414 4.127 6.08 5.38.298.102.598.195.9.282-.098.393-.186.789-.262 1.187-.695 3.662-.152 6.57 1.577 7.568 1.785 1.03 4.78-.029 7.698-2.58.23-.2.462-.415.694-.639.292.282.592.555.899.82 2.826 2.432 5.617 3.414 7.344 2.414 1.783-1.032 2.363-4.156 1.61-7.958a18.83 18.83 0 0 0-.199-.888c.21-.062.417-.127.618-.193 3.812-1.263 6.292-3.305 6.292-5.393 0-2.003-2.32-3.94-5.912-5.176z"/></g><g><path fill="#fff" d="M26.328 4.097c1.114.642 1.547 3.231.847 6.627-.046.222-.095.442-.15.661a34.027 34.027 0 0 0-4.445-.702 33.37 33.37 0 0 0-2.81-3.508c.248-.24.503-.474.764-.701 2.455-2.137 4.749-2.98 5.794-2.377zm-2.93 15.862a46.572 46.572 0 0 1-1.595 2.574c-.987.07-2.006.107-3.045.107-1.035 0-2.041-.033-3.01-.095a40.286 40.286 0 0 1-3.044-5.257 39.922 39.922 0 0 1 3.027-5.247 40.249 40.249 0 0 1 6.06 0 42.78 42.78 0 0 1 1.602 2.559c.507.873.985 1.763 1.434 2.668-.444.913-.92 1.811-1.429 2.691zm2.195-1.052c.444 1.013.819 1.993 1.116 2.925-.964.22-2.005.397-3.101.529.351-.558.692-1.122 1.02-1.692.335-.58.657-1.168.965-1.762zm-6.78 7.51a31.926 31.926 0 0 1-2-2.395c.636.025 1.285.038 1.945.038.678 0 1.348-.015 2.007-.045a30.212 30.212 0 0 1-1.952 2.402zm-4.876-4.03a30.245 30.245 0 0 1-3.065-.494c.294-.948.656-1.933 1.078-2.935a41.711 41.711 0 0 0 1.987 3.428zm-1.05-8.49c-.326.566-.639 1.14-.938 1.72a31.348 31.348 0 0 1-1.057-2.877 32.05 32.05 0 0 1 3.014-.518c-.352.55-.692 1.11-1.019 1.676zm5.887-5.706c.655.71 1.311 1.502 1.956 2.362a41.831 41.831 0 0 0-3.93 0 31.327 31.327 0 0 1 1.974-2.362zm5.849 5.697a45.165 45.165 0 0 0-1.011-1.663c1.06.134 2.077.312 3.032.53a30.304 30.304 0 0 1-1.065 2.863 49.51 49.51 0 0 0-.956-1.73zM10.28 10.346c-.625-3.193-.21-5.603.834-6.207 1.113-.644 3.572.274 6.165 2.576.166.147.332.301.499.46a34.038 34.038 0 0 0-2.833 3.506c-1.563.145-3.06.378-4.437.69-.084-.34-.16-.682-.228-1.025zM8.672 21.29c-1.621-.554-2.96-1.274-3.878-2.06-.825-.706-1.241-1.407-1.241-1.976 0-1.211 1.805-2.756 4.816-3.805a20.5 20.5 0 0 1 1.144-.36 34.068 34.068 0 0 0 1.62 4.2 34.585 34.585 0 0 0-1.64 4.258c-.276-.079-.55-.164-.821-.257zm4.796 9.062c-1.024.362-1.839.372-2.332.088-1.049-.605-1.485-2.94-.89-6.072.07-.37.152-.739.243-1.104 1.362.3 2.87.518 4.48.648a34.566 34.566 0 0 0 2.855 3.527c-.206.2-.417.394-.633.583-1.29 1.128-2.583 1.928-3.723 2.33zm13.811-6.348c.333 1.681.38 3.2.16 4.389-.198 1.067-.596 1.78-1.089 2.064-1.048.607-3.289-.182-5.705-2.261a20.37 20.37 0 0 1-.837-.763 33.381 33.381 0 0 0 2.788-3.539 33.159 33.159 0 0 0 4.503-.694c.068.274.128.542.18.804zm1.366-2.706c-.182.06-.369.119-.559.175a33.34 33.34 0 0 0-1.684-4.212 33.326 33.326 0 0 0 1.619-4.151c.34.098.67.202.988.312 3.077 1.059 4.954 2.625 4.954 3.832 0 1.285-2.027 2.954-5.318 4.044z"/></g><g><path fill="#53c1de" d="M18.758 14.284a2.97 2.97 0 1 1 0 5.939 2.97 2.97 0 0 1 0-5.939"/></g></g></g></svg>