<svg xmlns="http://www.w3.org/2000/svg" width="48" height="48" viewBox="0 0 48 48"><g><g><g><path fill="#c4a2fc" d="M37.724 27.555a.772.772 0 0 1-.772-.771 3.36 3.36 0 0 0-1.886-3.029.772.772 0 0 1 .682-1.384 4.892 4.892 0 0 1 2.748 4.413.772.772 0 0 1-.772.771zm-4.147-7.234a6.423 6.423 0 0 0-4.569 1.893.772.772 0 0 1-1.091 0 6.462 6.462 0 0 0-11.031 4.57c0 7.902 9.635 13.44 11.577 14.475 1.941-1.035 11.577-6.573 11.577-14.475a6.47 6.47 0 0 0-6.463-6.463z"/></g><g><path fill="#c4a2fc" d="M28.8 42.822a.772.772 0 0 1-.675 0c-.521-.254-12.783-6.326-12.783-16.038a8.006 8.006 0 0 1 13.12-6.16 8.007 8.007 0 0 1 13.121 6.16c0 9.712-12.261 15.784-12.783 16.038zm-.337-33.654c-10.657 0-19.295 8.639-19.295 19.295 0 10.656 8.638 19.295 19.295 19.295 10.656 0 19.294-8.639 19.294-19.295-.011-10.651-8.643-19.283-19.294-19.295z"/></g><g><g><path fill="#151a6a" d="M29.04 12.959a15.282 15.282 0 0 0-2.444-1.79l9.199-9.2 1.044 3.134zm-9.839 23.994c-7.246 0-13.12-5.874-13.12-13.12 0-7.247 5.874-13.121 13.12-13.121 7.246 0 13.12 5.874 13.12 13.12-.007 7.243-5.877 13.113-13.12 13.12zM2.608 1.968l9.199 9.202a15.298 15.298 0 0 0-2.445 1.789l-7.8-7.856zm22.536 8.467a14.592 14.592 0 0 0-11.893 0L8.901 6.08h20.6zm5.901-5.897H7.357L4.27 1.45h29.862zm7.41.527L36.913.436a.772.772 0 0 0-.731-.528H2.22a.772.772 0 0 0-.73.528l-1.544 4.63a.772.772 0 0 0 .183.788l8.155 8.212c-5.27 5.876-4.944 14.868.736 20.347 5.681 5.478 14.68 5.478 20.36 0 5.68-5.48 6.006-14.471.736-20.347l8.155-8.211a.772.772 0 0 0 .184-.788z"/></g><g><path fill="#151a6a" d="M19.56 28.17a.772.772 0 0 0-.718.003l-4.517 2.374.862-5.033a.772.772 0 0 0-.221-.683l-3.656-3.563 5.051-.733a.772.772 0 0 0 .581-.423l2.26-4.576 2.257 4.576c.113.228.33.387.582.423l5.05.733-3.655 3.563a.772.772 0 0 0-.221.683l.862 5.033-4.517-2.377zm5.184 4.468a.772.772 0 0 0 1.12-.808l-1.059-6.174 4.483-4.37a.772.772 0 0 0-.43-1.32l-6.197-.9-2.771-5.616a.803.803 0 0 0-1.383 0l-2.769 5.619-6.197.9a.772.772 0 0 0-.427 1.316l4.483 4.365-1.058 6.174a.772.772 0 0 0 1.12.814l5.542-2.913 5.543 2.913z"/></g></g></g></g></svg>