<svg xmlns="http://www.w3.org/2000/svg" width="48" height="49" viewBox="0 0 48 49"><g><g><path fill="#c4a2fc" d="M41.709 39.013h-15.49a.774.774 0 1 1 0-1.549h15.49a.774.774 0 1 1 0 1.55zm0 4.647h-15.49a.774.774 0 1 1 0-1.549h15.49a.774.774 0 1 1 0 1.549zM29.318 32.818h9.293a.774.774 0 0 1 0 1.549h-9.293a.774.774 0 1 1 0-1.55zm6.97-18.37v6.753a2.323 2.323 0 1 1-3.098-2.18v.631a.774.774 0 1 0 1.549 0v-9.293a.774.774 0 0 0-1.55 0v3.911c-6.95.413-12.379 6.164-12.39 13.126v18.587a2.323 2.323 0 0 0 2.323 2.324h21.685a2.323 2.323 0 0 0 2.323-2.324V27.396a13.178 13.178 0 0 0-10.842-12.948z"/></g><g><path fill="#151a6a" d="M35.995 28.17zm-18.294 0v-3.097h.774a.774.774 0 1 0 0-1.549H6.085a.774.774 0 1 0 0 1.55h.774v3.097h-1.55a3.872 3.872 0 1 1 0-7.745h30.686a6.62 6.62 0 0 0 0 7.745zm-1.549 3.395l-3.526-1.768a.774.774 0 0 0-.692 0l-3.527 1.768v-6.492h7.745zM6.859 11.133h2.323v7.745H6.859zm6.195 0v7.745h-2.323v-7.745zM7.633 5.712a3.877 3.877 0 0 1 3.872-3.872H29.8a6.62 6.62 0 0 0 0 7.744H11.505a3.877 3.877 0 0 1-3.872-3.872zm24.008 5.421v7.745H14.603v-7.745zM36.293 24.3a4.998 4.998 0 0 1 2.008-4.027.774.774 0 0 0-.464-1.394H33.19v-7.745c0-.73-.511-1.36-1.225-1.513a5.034 5.034 0 0 1 .14-7.935.774.774 0 0 0-.464-1.394H11.505A5.416 5.416 0 0 0 7.72 9.584h-.86c-.856 0-1.55.694-1.55 1.55v7.744a5.421 5.421 0 0 0 0 10.842h1.55v3.098a.774.774 0 0 0 1.12.697l4.3-2.155 4.301 2.155a.774.774 0 0 0 1.12-.697V29.72h20.137a.774.774 0 0 0 .464-1.394 4.997 4.997 0 0 1-2.008-4.027z"/></g></g></svg>