<svg xmlns="http://www.w3.org/2000/svg" width="49" height="49" viewBox="0 0 49 49"><g><g><g><g><path fill="#c3a1fb" d="M20.768 28.848c.601.512 1.244 1.018 1.922 1.516a42.497 42.497 0 0 1 0-3.03 34.318 34.318 0 0 0-1.922 1.514z"/></g><g><path fill="#c3a1fb" d="M33.234 24.268a34.125 34.125 0 0 0-.358-2.413 34.75 34.75 0 0 0-2.26.902 45.006 45.006 0 0 1 2.618 1.511z"/></g><g><path fill="#c3a1fb" d="M38.073 27.8c2.826-2.685 4.175-5.129 3.497-6.296-.73-1.264-3.592-.944-5.026-.673a22.22 22.22 0 0 0-2.18.541c.246 1.32.422 2.652.527 3.99a38.423 38.423 0 0 1 3.182 2.439z"/></g><g><path fill="#c3a1fb" d="M24.821 21.855a35.19 35.19 0 0 0-.358 2.413c.424-.264.855-.522 1.293-.774.438-.251.88-.496 1.324-.734a34.828 34.828 0 0 0-2.259-.905z"/></g><g><path fill="#c3a1fb" d="M33.4 26.22c-.709-.472-1.449-.937-2.232-1.392a40.796 40.796 0 0 0-2.32-1.243c-.773.386-1.546.797-2.319 1.243-.773.446-1.514.91-2.232 1.385-.054.857-.087 1.73-.087 2.635 0 .907.033 1.779.087 2.633a41.319 41.319 0 0 0 4.551 2.631 40.384 40.384 0 0 0 4.552-2.635c.054-.85.087-1.724.087-2.629 0-.904-.033-1.778-.086-2.628z"/></g><g><path fill="#c3a1fb" d="M32.876 35.842c.142-.764.26-1.568.358-2.413a44.454 44.454 0 0 1-2.617 1.511c.765.336 1.52.635 2.259.902z"/></g><g><path fill="#c3a1fb" d="M24.463 33.43c.096.844.215 1.648.358 2.412a34.747 34.747 0 0 0 2.26-.902 47.54 47.54 0 0 1-1.325-.734c-.44-.254-.872-.513-1.293-.777z"/></g><g><path fill="#c3a1fb" d="M23.332 21.37a22.218 22.218 0 0 0-2.18-.542c-1.44-.272-4.297-.59-5.025.673-.53.916.193 2.668 1.933 4.688.49.564 1.007 1.102 1.551 1.614a37.41 37.41 0 0 1 3.198-2.448 38.34 38.34 0 0 1 .523-3.986z"/></g><g><path fill="#c3a1fb" d="M38.073 29.896a38.423 38.423 0 0 1-3.182 2.442 38.354 38.354 0 0 1-.526 3.99c.717.217 1.444.397 2.18.541 2.617.495 4.497.245 5.025-.673.674-1.17-.67-3.614-3.497-6.3z"/></g><g><path fill="#c3a1fb" d="M25.146 37.368c.912 3.787 2.356 6.17 3.703 6.17 1.346 0 2.79-2.383 3.702-6.17a37.468 37.468 0 0 1-3.702-1.54 37.464 37.464 0 0 1-3.703 1.54z"/></g><g><path fill="#c3a1fb" d="M42.91 36.966c-1.172 2.028-4.342 1.856-6.65 1.42a24.076 24.076 0 0 1-2.215-.542c-1.01 4.169-2.763 7.24-5.196 7.24-2.434 0-4.188-3.071-5.193-7.242-.763.223-1.507.41-2.216.542-2.312.436-5.482.608-6.649-1.42-.91-1.578-.185-3.815 2.098-6.47a23.891 23.891 0 0 1 1.579-1.647c-.576-.55-1.108-1.1-1.58-1.648-2.282-2.654-3.008-4.891-2.097-6.47.911-1.579 3.211-2.07 6.653-1.419.71.134 1.453.32 2.216.541 1.001-4.167 2.755-7.239 5.189-7.239 2.433 0 4.187 3.072 5.192 7.242a23.116 23.116 0 0 1 2.216-.54c3.442-.65 5.741-.16 6.649 1.418 1.216 2.108-.568 5.162-3.677 8.118 3.113 2.954 4.897 6.009 3.68 8.116zM28.849 9.52C18.174 9.52 9.52 18.174 9.52 28.848c0 10.675 8.654 19.329 19.329 19.329 10.674 0 19.328-8.654 19.328-19.329-.012-10.67-8.659-19.316-19.328-19.328z"/></g><g><path fill="#c3a1fb" d="M36.908 28.848a35.046 35.046 0 0 0-1.9-1.507 44.564 44.564 0 0 1 0 3.015 35.036 35.036 0 0 0 1.9-1.508z"/></g><g><path fill="#c3a1fb" d="M19.608 29.89a22.334 22.334 0 0 0-1.551 1.615c-1.737 2.02-2.46 3.771-1.933 4.688.527.917 2.408 1.167 5.026.673a22.22 22.22 0 0 0 2.179-.541 38.336 38.336 0 0 1-.526-3.99 37.412 37.412 0 0 1-3.195-2.444z"/></g><g><path fill="#c3a1fb" d="M32.551 20.33c-.912-3.788-2.356-6.171-3.702-6.171-1.347 0-2.79 2.383-3.703 6.17 1.26.447 2.497.961 3.703 1.54a37.467 37.467 0 0 1 3.702-1.54z"/></g></g><g><path fill="#151a6a" d="M28.075 31.941a.773.773 0 0 1-.773.773H2.562a.773.773 0 0 1-.773-.773V2.561c0-.426.346-.773.773-.773h24.74c.427 0 .773.347.773.774zM27.302.242H2.562a2.32 2.32 0 0 0-2.32 2.32V31.94a2.32 2.32 0 0 0 2.32 2.32h24.74a2.32 2.32 0 0 0 2.32-2.32V2.561a2.32 2.32 0 0 0-2.32-2.319z"/></g><g><path fill="#151a6a" d="M10.293 7.2h9.278v9.278h-9.278zM9.52 18.024h10.824a.773.773 0 0 0 .773-.773V6.427a.773.773 0 0 0-.773-.773H9.52a.773.773 0 0 0-.773.773v10.824c0 .427.346.773.773.773z"/></g><g><path fill="#151a6a" d="M21.117 21.89H8.747a.773.773 0 1 0 0 1.546h12.37a.773.773 0 1 0 0-1.546z"/></g><g><path fill="#151a6a" d="M24.21 27.302H5.654a.773.773 0 1 0 0 1.546H24.21a.773.773 0 1 0 0-1.546z"/></g></g></g></svg>