<svg xmlns="http://www.w3.org/2000/svg" width="50" height="49" viewBox="0 0 50 49"><g><g><path fill="#c3a1fb" d="M12 16a2 2 0 0 1-2-2v-3a2 2 0 0 1 2-2h36a2 2 0 0 1 2 2v3a2 2 0 0 1-2 2z"/></g><g><path fill="#c3a1fb" d="M44.385 36.842a.8.8 0 0 1-1.132 0l-3.438-3.437v10.078a.8.8 0 1 1-1.601 0V33.405l-3.438 3.437a.8.8 0 1 1-1.132-1.132l4.804-4.805a.8.8 0 0 1 1.134 0l4.805 4.805a.8.8 0 0 1-.002 1.132zM24.601 40.28h-8.008a.8.8 0 0 1 0-1.602h8.008a.8.8 0 0 1 0 1.602zm0 4.004h-8.008a.8.8 0 0 1 0-1.602h8.008a.8.8 0 0 1 0 1.602zM11.789 17.859v28.026a2.402 2.402 0 0 0 2.402 2.402h32.03a2.402 2.402 0 0 0 2.402-2.402V17.86z"/></g><g><path fill="#151a6a" d="M7.385 1.844h30.343a8.025 8.025 0 0 0-1.41 2.402H7.784a.8.8 0 1 0 0 1.602h28.123a8.082 8.082 0 0 0-.097 1.2c.003.403.035.804.097 1.202H7.785a.8.8 0 1 0 0 1.601h28.532c.327.877.805 1.69 1.411 2.403H7.385a5.205 5.205 0 0 1 0-10.41zm0 12.011h32.43a.8.8 0 0 0 .449-1.465 6.43 6.43 0 0 1 0-10.683.8.8 0 0 0-.449-1.465H7.385a6.806 6.806 0 0 0 0 13.613z"/></g></g></svg>