<svg xmlns="http://www.w3.org/2000/svg" width="56" height="49" viewBox="0 0 56 49"><g><g><g><g><path fill="#c4a2fc" d="M52.634 21.683h-9.717v25.619c0 .488.395.883.883.883h8.834a2.65 2.65 0 0 0 2.65-2.65V24.334a2.65 2.65 0 0 0-2.65-2.65z"/></g><g><path fill="#c4a2fc" d="M11.115 31.4v14.135a2.65 2.65 0 0 0 2.65 2.65h8.834a.883.883 0 0 0 .883-.883V28.75h-9.717a2.65 2.65 0 0 0-2.65 2.65z"/></g><g><path fill="#c4a2fc" d="M37.793 19.713l-1.996 1.458.76 2.35a.883.883 0 0 1-1.352.99l-2.006-1.458-2.005 1.457a.883.883 0 0 1-1.351-.99l.76-2.349-1.997-1.458a.883.883 0 0 1 .512-1.563h2.474l.768-2.35a.883.883 0 0 1 1.679 0l.768 2.35h2.474a.883.883 0 0 1 .512 1.563zm.707-8.63H27.9a2.65 2.65 0 0 0-2.651 2.65v33.569c0 .487.395.883.883.883h14.134a.883.883 0 0 0 .884-.883v-33.57a2.65 2.65 0 0 0-2.65-2.65z"/></g></g><g><path fill="#151a6a" d="M37.616 29.634h-13.25v-.345c0-7.217-6.184-7.129-6.184-13.445v-5.203c0-.976.79-1.767 1.767-1.767h10.159a1.767 1.767 0 0 1 0 3.534h-5.742a.883.883 0 0 0 0 1.767h5.742a3.534 3.534 0 0 0 3.295-2.315 3.534 3.534 0 0 0 5.097-.23 3.534 3.534 0 0 0 2.65 1.22 3.454 3.454 0 0 0 1.767-.495v3.816c0 5.901-5.3 6.069-5.3 12.792zm2.65 3.533c0 .976-.79 1.767-1.766 1.767H23.482a1.767 1.767 0 1 1 0-3.533H38.5c.975 0 1.767.79 1.767 1.766zM8.466 21.277L2.758 8.433H14.17zM2.28 4.899h19.434v1.767H2.281zm22.968-2.65c.976 0 1.767.79 1.767 1.767v3.091h-3.534V4.016c0-.976.791-1.767 1.767-1.767zm5.3 0c.976 0 1.767.79 1.767 1.767v3.869a3.534 3.534 0 0 0-2.208-.778h-1.326V4.016c0-.976.791-1.767 1.767-1.767zm5.3 0c.976 0 1.767.79 1.767 1.767v5.3a1.767 1.767 0 1 1-3.533 0v-5.3c0-.976.79-1.767 1.767-1.767zm5.3 0c.977 0 1.768.79 1.768 1.767v5.3a1.767 1.767 0 1 1-3.534 0v-5.3c0-.976.791-1.767 1.767-1.767zm0-1.767a3.534 3.534 0 0 0-2.65 1.22 3.428 3.428 0 0 0-2.65-1.22 3.534 3.534 0 0 0-2.65 1.22 3.428 3.428 0 0 0-2.65-1.22 3.534 3.534 0 0 0-2.65 1.22 3.428 3.428 0 0 0-2.65-1.22 3.534 3.534 0 0 0-3.41 2.65H1.397a.883.883 0 0 0-.883.884v3.533s.062.318.07.345l7.068 15.9a.883.883 0 0 0 1.608 0l6.846-15.361h1.104a3.534 3.534 0 0 0-.68 1.351.936.936 0 0 0-.115.415v5.645c0 7.209 6.184 7.138 6.184 13.445v.469a3.534 3.534 0 0 0 .883 6.943H38.5a3.534 3.534 0 0 0 .883-6.943v-.796c0-5.998 5.3-5.962 5.3-12.791V4.016A3.534 3.534 0 0 0 41.15.482z"/></g></g></g></svg>